<svg width="127" height="90" viewBox="0 0 127 90" fill="none" xmlns="http://www.w3.org/2000/svg">
<path fill-rule="evenodd" clip-rule="evenodd" d="M34.2713 37.2805L126.575 61.4044L38.2403 50.3178L24.5376 63.9263L34.2713 37.2805Z" fill="#BEB58E"/>
<path d="M24.5376 63.9263L42.2092 63.355L38.2403 50.3178L24.5376 63.9263Z" fill="#716B44"/>
<path d="M26.9477 13.377L121.833 59.6486L34.6613 36.8654L26.9477 13.377Z" fill="#EEECDB" stroke="#BEB58E"/>
<path d="M123.571 61.5319L47.0892 77.7814L38.9417 50.9094L123.571 61.5319Z" fill="#EEECDB" stroke="#BEB58E"/>
<path d="M86.7328 56.4083C86.1036 62.5263 78.4279 67.7941 69.0429 68.1362C54.6715 68.66 48.1297 60.0226 48.1297 51.5529L86.7328 56.4083Z" fill="#FFD84E"/>
<path d="M53.3996 67.1559L48.0063 73.9995" stroke="#FFCD4E" stroke-width="2" stroke-linecap="round"/>
<path d="M46.6578 55.8631L41.8295 56.0845" stroke="#FFCD4E" stroke-width="2" stroke-linecap="round"/>
<path d="M99.2725 61.0989L90.4752 59.1007" stroke="#FFCD4E" stroke-width="2" stroke-linecap="round"/>
<path d="M70.3929 69.3888L70.5353 71.7669" stroke="#FFCD4E" stroke-width="2" stroke-linecap="round"/>
<path d="M84.9122 64.7191L88.0321 67.9313" stroke="#FFCD4E" stroke-width="2" stroke-linecap="round"/>
<path d="M46.3583 40.4406C51.43 35.8742 58.9959 37.1849 66.1596 39.0662C71.9221 40.5795 83.3285 45.9813 84.7588 50.4789L46.3583 40.4406Z" fill="#FFD84E"/>
<path d="M46.3583 51.3277C45.5463 49.4455 45.4172 43.7251 46.3583 40.4406L84.7588 50.4789C85.2071 52.4391 85.116 54.9771 84.759 56.1501L46.3583 51.3277Z" fill="#C5992A"/>
<path d="M50.1631 35.2392L44.5844 27.0553" stroke="#FFCD4E" stroke-width="2" stroke-linecap="round"/>
<path d="M88.5007 44.5522L84.0293 46.2079" stroke="#FFCD4E" stroke-width="2" stroke-linecap="round"/>
<path d="M76.5702 38.7246L75.4403 40.3602" stroke="#FFCD4E" stroke-width="2" stroke-linecap="round"/>
<path d="M63.3149 33.2474L63.3394 35.7032" stroke="#FFCD4E" stroke-width="2" stroke-linecap="round"/>
<path d="M35.7019 29.746C36.4764 29.9815 35.8621 30.7293 35.0876 30.4938C34.4359 30.1088 34.9274 29.5105 35.7019 29.746Z" fill="#E0CAEF"/>
<path d="M51.1178 28.0807C51.4716 28.1883 51.191 28.5299 50.8372 28.4223C50.5395 28.2464 50.764 27.9731 51.1178 28.0807Z" fill="#E0CAEF"/>
<path d="M46.0081 61.4342C46.7826 61.6697 46.1684 62.4175 45.3938 62.182C44.7422 61.797 45.2336 61.1988 46.0081 61.4342Z" fill="#E0CAEF"/>
<path d="M41.7406 34.9499C41.9988 35.0284 41.9988 35.0284 41.7406 34.9499C42.4048 35.7125 40.7453 35.7687 40.5975 35.163C40.5975 35.163 40.7205 35.0135 40.4623 34.935C40.1917 34.4789 41.7282 34.5723 41.7406 34.9499Z" fill="#E0CAEF"/>
<path d="M103.062 51.9887C103.32 52.0672 103.32 52.0672 103.062 51.9887C103.726 52.7513 102.067 52.8075 101.919 52.2019C101.919 52.2019 102.042 52.0523 101.784 51.9738C101.513 51.5177 103.05 51.6111 103.062 51.9887Z" fill="#E0CAEF"/>
<path d="M107.682 60.7898C107.945 60.7771 107.945 60.7771 107.682 60.7898C108.771 61.5281 107.495 62.3808 106.932 61.6171C106.932 61.6171 106.919 61.354 106.656 61.3667C106.105 60.8661 107.394 60.2764 107.682 60.7898Z" fill="#E0CAEF"/>
<path d="M37.9565 22.2192C38.2147 22.2977 38.2147 22.2977 37.9565 22.2192C38.6206 22.9818 36.9611 23.038 36.8134 22.4323C36.8134 22.4323 36.9363 22.2828 36.6781 22.2043C36.4075 21.7482 37.944 21.8416 37.9565 22.2192Z" fill="#E0CAEF"/>
<path d="M97.0398 64.4466C97.8283 64.4084 97.8792 65.4606 97.0907 65.4988C96.3022 65.5369 96.2513 64.4847 97.0398 64.4466Z" fill="#E0CAEF"/>
<path d="M56.0383 30.025C57.0233 29.9773 57.0869 31.2917 56.1019 31.3393C55.1169 31.387 55.0533 30.0726 56.0383 30.025Z" fill="#E0CAEF"/>
<path d="M57.3739 71.2408C58.1624 71.2026 58.2133 72.2548 57.4248 72.2929C56.6363 72.3311 56.5854 71.2789 57.3739 71.2408Z" fill="#E0CAEF"/>
<path d="M90.7212 48.9264C91.4958 49.1619 91.0043 49.7601 90.2298 49.5246C89.4553 49.2892 89.9467 48.691 90.7212 48.9264Z" fill="#E0CAEF"/>
</svg>
