<svg width="1920" height="967" viewBox="0 0 1920 967" fill="none" xmlns="http://www.w3.org/2000/svg">
<g clip-path="url(#clip0_3_664)" filter="url(#filter0_d_3_664)">
<path d="M2622.62 426.689C2615.57 419.934 2608.51 412.505 2604.28 403.049C2599.34 392.242 2599.34 381.436 2599.34 370.629C2599.34 365.226 2599.34 359.822 2598.63 354.419C2593.69 315.92 2553.47 291.606 2518.9 284.851C2509.02 282.825 2498.43 282.15 2487.14 282.15C2457.51 282.15 2426.46 288.904 2399.65 294.307C2396.83 294.983 2394 294.307 2392.59 292.281C2391.18 290.255 2390.48 287.553 2391.89 285.527C2408.82 250.405 2378.48 208.529 2341.79 186.916C2309.33 168.005 2271.93 158.549 2233.12 158.549C2205.6 158.549 2178.09 163.952 2153.39 173.408C2149.86 174.759 2145.63 173.408 2144.22 170.031C2111.05 97.7613 2032.73 45.0788 1950.88 39.6755C1945.94 39.6755 1941 39 1936.77 39C1858.44 39 1781.53 80.2005 1740.61 143.014C1739.9 144.365 1737.78 145.716 1735.67 146.391C1733.55 147.067 1731.43 146.391 1730.02 145.04C1701.09 124.102 1665.1 113.296 1626.3 113.296C1547.97 113.296 1473.88 157.198 1447.78 219.336C1447.07 221.362 1445.66 222.713 1443.54 223.389C1441.42 224.064 1439.31 224.064 1437.9 222.713C1387.09 195.696 1332.05 187.592 1287.6 203.126C1236.8 220.011 1202.93 270.668 1211.39 315.92C1212.1 317.947 1211.39 319.973 1209.98 321.324C1208.57 322.675 1206.46 324.025 1204.34 323.35C1202.22 323.35 1199.4 323.35 1197.28 323.35C1135.89 323.35 1085.09 370.629 1070.27 388.19C1027.23 441.548 1015.23 525.975 1042.75 579.332C1055.45 604.323 1082.97 634.717 1140.83 634.717C1147.89 634.717 1154.95 634.041 1162 633.366C1164.12 633.366 1165.53 633.366 1167.65 634.717C1169.06 636.067 1169.76 637.418 1170.47 639.445C1174.7 688.75 1227.62 722.521 1275.61 722.521C1295.36 722.521 1313.71 717.117 1327.82 706.311C1329.94 704.96 1332.05 704.284 1334.17 704.96C1336.29 705.635 1338.41 706.986 1339.11 709.012C1357.46 759.668 1414.61 794.79 1478.82 794.79C1513.4 794.79 1545.86 783.308 1568.44 763.045C1569.85 761.695 1571.26 761.019 1573.37 761.019H1574.08C1576.2 761.019 1578.31 762.37 1579.02 764.396C1597.37 793.439 1634.76 811 1674.98 811C1710.97 811 1743.43 796.816 1762.48 773.177C1763.89 771.826 1765.3 770.475 1767.42 770.475C1769.54 770.475 1770.95 771.15 1773.06 771.826C1801.99 796.141 1840.8 808.974 1882.43 808.974C1919.13 808.974 1954.41 798.167 1981.92 778.58C1984.04 777.229 1986.86 776.554 1988.98 777.905C2005.92 786.01 2024.97 790.062 2044.72 790.062C2088.47 790.062 2130.1 770.475 2154.8 739.406C2156.21 737.38 2158.33 736.704 2160.45 736.704C2162.56 736.704 2164.68 738.055 2166.09 739.406C2182.32 761.019 2210.54 773.177 2242.3 773.177C2282.52 773.177 2317.8 754.265 2331.91 724.547C2332.62 723.196 2334.03 721.845 2336.14 721.17C2338.26 720.494 2339.67 720.494 2341.79 721.845C2358.72 729.95 2377.77 734.003 2397.53 734.003C2460.33 734.003 2518.19 694.828 2537.95 643.497C2519.6 661.058 2494.2 671.864 2468.09 671.864C2464.56 671.864 2461.74 671.864 2458.21 671.189C2454.69 670.513 2451.86 667.136 2451.86 663.759C2452.57 660.382 2455.39 657.681 2459.63 657.681C2488.56 661.058 2519.6 646.874 2536.54 623.234C2552.77 599.595 2554.88 567.175 2540.77 542.185C2538.65 538.807 2540.07 534.755 2543.59 532.729C2547.12 530.703 2551.36 532.053 2553.47 535.43C2565.47 557.044 2567.58 584.06 2559.82 607.024C2586.64 588.113 2615.57 566.5 2633.21 538.132C2650.85 509.765 2659.31 465.187 2634.62 435.469C2629.68 434.118 2626.15 430.741 2622.62 426.689ZM1573.37 664.435C1560.67 674.566 1544.44 679.969 1527.51 679.969C1521.16 679.969 1514.1 679.294 1507.75 677.943C1486.58 673.215 1468.94 661.058 1459.77 644.848C1432.25 662.409 1395.56 666.461 1363.81 655.654C1329.94 644.172 1303.12 614.454 1295.36 580.683C1294.66 577.306 1296.77 573.254 1301.01 572.578C1304.54 571.903 1308.77 573.929 1309.47 577.982C1315.83 607.7 1339.11 632.69 1368.75 643.497C1398.38 653.628 1432.96 648.225 1457.65 629.989C1459.06 628.638 1461.89 627.962 1464 628.638C1466.12 629.313 1468.24 630.664 1468.94 632.69C1475.29 648.9 1491.52 661.058 1511.28 665.786C1531.04 670.514 1551.5 666.461 1564.91 655.654C1567.73 652.953 1571.96 653.628 1574.79 656.33C1576.9 657.681 1576.9 662.409 1573.37 664.435ZM1642.52 298.36C1640.41 301.061 1635.47 301.737 1632.65 299.71C1611.48 284.851 1582.55 281.474 1557.85 290.255C1533.86 299.035 1514.1 320.648 1509.16 344.963C1508.46 346.99 1507.05 349.016 1504.93 349.691C1502.81 350.367 1499.99 350.367 1497.87 349.016C1484.47 338.885 1465.42 334.832 1447.07 337.534C1428.02 340.235 1411.79 349.691 1401.91 362.524C1400.5 364.55 1398.38 365.226 1396.27 365.226C1394.85 365.226 1393.44 364.55 1392.03 363.875C1389.21 361.849 1388.5 357.796 1390.62 354.419C1402.62 338.209 1423.08 326.727 1444.95 324.025C1464 321.324 1482.35 324.701 1497.87 332.806C1506.34 307.815 1527.51 286.878 1552.91 277.422C1581.84 267.291 1615.71 271.343 1640.41 288.904C1644.64 290.93 1644.64 295.658 1642.52 298.36ZM2107.52 684.022C2101.88 704.284 2082.12 720.494 2059.54 721.17C2041.2 721.845 2022.85 712.389 2013.68 698.206C1993.21 717.793 1964.99 728.599 1936.77 728.599C1933.94 728.599 1931.12 728.599 1927.59 727.924C1892.31 725.222 1859.85 704.96 1842.21 675.241C1840.1 671.864 1841.51 667.812 1845.04 665.786C1848.56 663.759 1852.8 665.11 1854.91 668.487C1869.73 694.153 1898.66 711.714 1929 713.74C1960.05 716.442 1990.39 703.609 2010.15 680.645C2011.56 678.618 2014.38 677.943 2016.5 677.943C2019.32 678.618 2021.44 679.969 2022.14 681.996C2027.79 696.179 2043.31 706.986 2059.54 705.635C2075.07 704.96 2090.59 693.478 2094.12 678.619C2094.82 675.241 2099.06 672.54 2102.58 673.891C2106.11 676.592 2108.94 680.645 2107.52 684.022ZM2247.24 333.481C2245.82 335.507 2243.71 336.858 2241.59 336.858C2240.18 336.858 2238.77 336.183 2238.06 335.508C2234.53 333.481 2233.83 329.429 2235.95 326.052C2244.41 313.219 2244.41 295.658 2235.95 282.825C2230.3 274.72 2221.83 271.343 2211.96 266.615C2203.49 263.238 2195.02 259.185 2187.96 252.431C2180.91 245.677 2176.67 236.897 2173.15 228.792C2169.62 221.362 2166.09 213.933 2159.74 207.854C2143.51 192.995 2100.47 160.575 2051.78 180.837C2048.25 182.188 2044.02 180.837 2042.61 177.46C2041.2 174.083 2042.61 170.031 2046.14 168.68C2085.65 152.47 2130.81 163.276 2169.62 198.398C2177.38 205.828 2181.61 214.608 2185.85 223.389C2189.38 230.818 2192.2 237.572 2197.84 242.976C2202.78 247.703 2210.54 251.081 2217.6 254.458C2228.18 259.186 2240.18 263.913 2247.94 275.395C2258.53 292.956 2258.53 315.92 2247.24 333.481Z" fill="white"/>
<path d="M2328.69 725.501C2329.4 724.149 2330.81 722.798 2332.93 722.122C2335.05 721.446 2336.46 721.446 2338.57 722.798C2355.51 730.907 2374.57 734.962 2394.33 734.962C2457.15 734.962 2515.03 695.767 2534.79 644.408C2516.44 661.978 2491.03 672.791 2464.91 672.791C2461.38 672.791 2458.56 672.791 2455.03 672.115C2451.5 671.439 2448.68 668.06 2448.68 664.681C2449.39 661.302 2452.21 658.599 2456.44 658.599C2485.38 661.978 2516.44 647.787 2533.38 624.135C2549.61 600.483 2551.73 568.046 2537.61 543.042V542.366C2486.79 535.608 2438.8 509.253 2407.04 470.734C2378.81 490.331 2351.28 509.929 2323.05 528.851C2282.82 556.557 2241.17 584.94 2193.18 595.077C2144.48 605.213 2087.31 591.022 2062.6 549.8C2044.25 590.346 2000.49 618.729 1954.62 620.756C1908.74 622.108 1862.86 597.104 1841.69 557.909C1794.4 595.752 1733.7 622.783 1672.29 618.053C1610.89 613.322 1550.89 570.073 1542.42 511.956C1446.44 557.909 1317.98 525.472 1257.98 441C1212.11 476.14 1161.29 510.605 1102.71 514.659C1076.59 516.687 1048.36 509.253 1025.77 496.414C1022.95 526.823 1027.89 556.557 1039.89 580.21C1052.59 605.213 1080.12 635.623 1138 635.623C1145.06 635.623 1152.11 634.947 1159.17 634.271C1161.29 634.271 1162.7 634.272 1164.82 635.623C1166.23 636.975 1166.94 638.326 1167.64 640.353C1171.88 689.685 1224.81 723.474 1272.81 723.474C1292.57 723.474 1310.92 718.067 1325.04 707.255C1327.15 705.903 1329.27 705.228 1331.39 705.904C1333.51 706.579 1335.62 707.931 1336.33 709.958C1354.68 760.641 1411.85 795.781 1476.08 795.781C1510.66 795.781 1543.13 784.293 1565.72 764.02C1567.13 762.669 1568.54 761.993 1570.66 761.993H1571.36C1573.48 761.993 1575.6 763.344 1576.3 765.372C1594.65 794.43 1632.06 812 1672.29 812C1708.29 812 1740.76 797.809 1759.81 774.157C1761.22 772.805 1762.64 771.454 1764.75 771.454C1766.87 771.454 1768.28 772.129 1770.4 772.805C1799.34 797.133 1838.16 809.973 1879.8 809.973C1916.5 809.973 1951.79 799.16 1979.32 779.563C1981.44 778.211 1984.26 777.536 1986.38 778.887C2003.32 786.996 2022.37 791.051 2042.14 791.051C2085.9 791.051 2127.54 771.454 2152.24 740.368C2153.65 738.341 2155.77 737.665 2157.89 737.665C2160.01 737.665 2162.12 739.017 2163.53 740.368C2179.77 761.993 2208 774.157 2239.76 774.157C2279.29 774.157 2314.58 754.559 2328.69 725.501ZM1572.77 664.005C1560.07 674.142 1543.84 679.548 1526.9 679.548C1520.54 679.548 1513.49 678.873 1507.13 677.521C1485.96 672.791 1468.31 660.627 1459.14 644.408C1431.61 661.978 1394.91 666.033 1363.15 655.221C1329.27 643.732 1302.45 613.998 1294.69 580.21C1293.98 576.831 1296.1 572.776 1300.33 572.1C1303.86 571.424 1308.1 573.452 1308.8 577.506C1315.15 607.241 1338.45 632.244 1368.09 643.056C1397.73 653.193 1432.32 647.787 1457.02 629.541C1458.43 628.189 1461.26 627.514 1463.37 628.19C1465.49 628.865 1467.61 630.217 1468.32 632.244C1474.67 648.463 1490.9 660.627 1510.66 665.357C1530.43 670.088 1550.89 666.033 1564.3 655.221C1567.13 652.517 1571.36 653.193 1574.19 655.896C1576.3 657.248 1576.3 661.978 1572.77 664.005ZM2107.07 683.603C2101.42 703.876 2081.66 720.095 2059.07 720.77C2040.72 721.446 2022.37 711.985 2013.2 697.794C1992.73 717.392 1964.5 728.204 1936.26 728.204C1933.44 728.204 1930.62 728.204 1927.09 727.528C1891.8 724.825 1859.33 704.552 1841.69 674.818C1839.57 671.439 1840.98 667.384 1844.51 665.357C1848.04 663.33 1852.27 664.681 1854.39 668.06C1869.21 693.74 1898.15 711.31 1928.5 713.337C1959.56 716.04 1989.91 703.2 2009.67 680.224C2011.08 678.197 2013.9 677.521 2016.02 677.521C2018.84 678.197 2020.96 679.548 2021.67 681.576C2027.31 695.767 2042.84 706.579 2059.07 705.228C2074.6 704.552 2090.13 693.064 2093.66 678.197C2094.37 674.818 2098.6 672.115 2102.13 673.466C2105.66 676.169 2108.48 680.224 2107.07 683.603Z" fill="#FCFEFF"/>
<path d="M2631.83 417.236C2625.48 410.485 2619.13 404.409 2616.31 397.658C2612.78 389.557 2612.78 380.106 2612.08 370.654C2612.08 365.253 2612.08 359.177 2611.37 353.101C2605.02 307.869 2559.87 279.515 2520.36 272.089C2509.07 270.063 2497.78 268.713 2485.79 268.713C2458.98 268.713 2432.17 273.439 2406.77 278.84C2415.94 239.684 2384.9 197.152 2346.8 174.874C2312.23 155.295 2272.72 144.494 2231.09 144.494C2204.28 144.494 2176.77 149.219 2152.07 157.996C2115.39 84.4094 2034.96 31.076 1949.59 25.6751C1944.65 25.6751 1939 25 1934.07 25C1853.64 25 1774.62 65.5063 1730.17 129.641C1699.83 110.063 1663.85 99.9368 1623.63 99.9368C1542.5 99.9368 1466.3 143.819 1434.55 207.278C1382.34 180.949 1325.2 174.198 1279.34 190.401C1225.01 208.629 1188.33 261.287 1193.26 309.895C1129.06 310.57 1075.44 355.802 1056.39 380.106C1009.83 438.165 997.128 526.603 1027.47 585.338C1050.75 629.895 1095.2 652.173 1153.75 647.447C1162.22 700.781 1220.07 735.886 1272.28 735.886C1292.04 735.886 1310.38 731.16 1325.2 721.709C1348.48 773.017 1408.45 808.797 1474.77 808.797C1510.04 808.797 1543.2 797.996 1567.9 778.418C1590.47 807.447 1629.28 825 1671.61 825C1709.71 825 1743.57 811.498 1765.44 787.194C1796.49 810.823 1836 823.65 1878.33 823.65C1916.43 823.65 1953.11 812.848 1982.75 792.595C2000.38 800.021 2020.14 804.072 2040.6 804.072C2085.05 804.072 2128.79 785.169 2156.31 754.789C2175.36 775.717 2204.99 787.194 2238.15 787.194C2280.48 787.194 2319.28 767.616 2337.63 736.561C2354.56 743.987 2373.61 747.363 2393.36 747.363C2469.56 747.363 2540.82 693.354 2553.52 626.519C2584.56 604.916 2619.84 580.612 2641.71 546.182C2662.87 513.101 2671.34 463.819 2642.41 428.038C2639.59 423.987 2635.36 420.612 2631.83 417.236ZM2629.71 539.43C2612.08 567.785 2583.85 589.388 2556.34 608.291C2564.1 584.663 2561.98 558.333 2549.99 536.73C2547.87 533.355 2543.64 532.004 2540.11 534.03C2536.58 536.055 2535.17 540.106 2537.29 543.481C2551.4 568.46 2549.99 600.865 2533.06 624.494C2516.83 648.122 2485.79 661.625 2456.15 658.924C2451.92 658.249 2449.1 660.949 2448.39 665C2447.69 668.376 2450.51 671.751 2454.74 672.426C2458.27 672.426 2461.09 673.101 2464.62 673.101C2490.72 673.101 2516.12 662.3 2534.47 644.747C2514.71 696.055 2456.15 735.211 2394.07 735.211C2373.61 735.211 2355.26 731.161 2338.33 723.059C2336.92 722.384 2334.8 722.384 2332.69 722.384C2330.57 723.059 2329.16 724.409 2328.45 725.76C2313.64 755.464 2278.36 774.367 2238.85 774.367C2207.1 774.367 2178.88 762.215 2162.66 740.612C2161.24 738.586 2159.13 737.911 2157.01 737.911C2154.89 737.911 2152.78 738.586 2151.37 740.612C2127.38 771.667 2085.05 791.245 2041.31 791.245C2021.55 791.245 2002.5 787.194 1985.57 779.093C1983.45 777.743 1980.63 778.418 1978.51 779.768C1951 799.346 1915.72 810.148 1879.03 810.148C1838.11 810.148 1799.31 796.646 1769.68 773.017C1768.27 771.667 1766.15 770.992 1764.03 771.667C1761.92 771.667 1760.51 773.017 1759.09 774.367C1740.05 798.671 1707.59 812.173 1671.61 812.173C1630.69 812.173 1594 793.945 1575.66 765.591C1574.25 763.565 1572.84 762.89 1570.72 762.215H1570.01C1567.9 762.215 1566.49 762.89 1565.08 764.24C1542.5 784.494 1510.04 795.971 1475.47 795.971C1411.98 795.971 1354.12 760.865 1335.78 710.232C1335.07 708.207 1332.96 706.857 1330.84 706.182C1328.72 705.506 1326.61 706.181 1324.49 707.532C1310.38 718.333 1292.04 723.734 1272.28 723.734C1225.01 723.734 1171.39 690.654 1167.16 640.696C1167.16 638.671 1165.75 637.321 1164.34 635.97C1162.93 634.62 1160.81 634.62 1158.69 634.62C1151.64 635.295 1143.88 635.97 1137.53 635.97C1080.38 635.97 1052.86 606.266 1039.46 580.612C1011.94 527.279 1023.94 443.565 1066.97 389.557C1081.79 371.329 1132.59 324.747 1193.97 324.747C1196.09 324.747 1198.91 324.747 1201.02 324.747C1203.14 324.747 1205.26 324.072 1206.67 322.722C1208.08 321.371 1208.79 319.346 1208.08 317.321C1198.91 272.764 1233.48 222.131 1284.28 204.578C1328.72 189.726 1384.46 197.152 1434.55 224.156C1436.67 224.831 1438.08 225.506 1440.2 224.831C1442.31 224.156 1443.73 222.806 1444.43 220.781C1471.24 158.671 1544.62 114.789 1622.93 114.789C1662.44 114.789 1698.42 125.591 1726.64 146.519C1728.05 147.869 1730.17 147.869 1732.28 147.869C1734.4 147.194 1735.81 146.519 1737.22 144.494C1778.14 81.0338 1855.05 40.5275 1933.36 40.5275C1938.3 40.5275 1943.24 40.5276 1947.47 41.2027C2030.02 46.6035 2107.62 98.5866 2140.78 171.498C2142.2 174.874 2146.43 176.224 2149.96 174.874C2174.65 164.747 2202.16 160.021 2229.68 160.021C2268.48 160.021 2305.88 170.148 2338.33 188.376C2375.02 209.979 2405.36 251.836 2388.42 286.941C2387.01 288.966 2387.72 291.667 2389.13 293.692C2390.54 295.717 2393.36 296.392 2396.18 295.717C2423.7 289.641 2454.04 283.566 2483.67 283.566C2494.96 283.566 2505.54 284.241 2515.42 286.266C2549.99 293.017 2589.5 317.321 2595.14 355.802C2595.85 361.203 2595.85 365.928 2595.85 372.004C2595.85 382.806 2595.85 393.608 2600.79 404.409C2605.02 413.861 2612.08 421.287 2619.13 428.038C2622.66 431.414 2626.19 434.789 2629.01 438.84C2655.82 466.519 2648.06 511.076 2629.71 539.43Z" fill="#F8FCFE"/>
<path d="M1564.02 652.797C1550.59 664.226 1530.1 667.588 1510.32 662.882C1490.53 658.175 1474.28 646.074 1467.92 629.939C1467.22 627.922 1465.1 626.577 1462.98 625.905C1460.86 625.233 1458.74 625.905 1456.62 627.25C1431.89 646.074 1396.56 651.452 1367.59 640.696C1337.92 630.611 1314.6 605.063 1308.24 575.482C1307.53 572.121 1304 569.431 1299.76 570.104C1296.23 570.776 1293.4 574.137 1294.11 578.171C1301.88 611.786 1328.73 641.368 1362.65 652.797C1393.73 663.554 1430.48 659.52 1458.74 642.04C1468.63 658.175 1485.59 670.277 1506.78 674.983C1513.14 676.328 1520.21 677 1526.57 677C1544.23 677 1560.48 671.622 1572.49 661.537C1575.32 658.848 1576.03 654.814 1573.2 652.125C1571.79 650.78 1567.55 650.108 1564.02 652.797Z" fill="#F8FCFE"/>
<path d="M1553.29 276.443C1527.92 285.872 1506.78 306.751 1498.33 331.671C1482.83 323.589 1463.8 320.222 1445.48 322.916C1422.94 326.283 1403.21 337.059 1391.23 353.224C1389.12 355.918 1389.82 360.632 1392.64 362.653C1394.05 363.326 1395.46 364 1396.87 364C1398.98 364 1401.09 363.327 1402.5 361.306C1412.37 347.836 1429.28 339.08 1447.6 336.386C1466.62 333.692 1484.94 337.733 1498.33 347.836C1500.44 349.183 1502.56 349.856 1505.37 348.509C1507.49 347.836 1509.6 345.815 1509.6 343.795C1515.24 319.548 1534.26 297.996 1558.22 289.24C1582.18 280.484 1611.77 284.525 1632.91 298.669C1635.73 300.69 1640.66 300.016 1642.77 297.322C1644.88 294.628 1644.18 289.913 1641.36 287.893C1616 270.382 1581.47 266.341 1553.29 276.443Z" fill="#F8FCFE"/>
<path d="M2102.68 674.693C2099.15 674.023 2094.91 676.034 2094.21 679.386C2089.97 694.136 2075.13 705.534 2059.59 706.204C2044.05 706.875 2027.8 696.818 2022.15 682.738C2021.44 680.727 2019.32 678.716 2016.49 678.716C2013.67 678.045 2011.55 679.386 2010.14 681.398C1990.35 704.193 1959.98 716.261 1928.89 714.25C1898.51 711.568 1869.55 694.136 1854.71 669.329C1852.59 665.977 1848.35 665.307 1844.82 666.647C1841.29 668.659 1839.88 672.682 1842 676.034C1859.66 705.534 1892.16 724.977 1927.48 728.33C1930.3 728.33 1933.13 729 1936.66 729C1965.63 729 1993.89 717.602 2013.67 698.829C2023.56 713.58 2041.22 722.966 2059.59 721.625C2081.49 720.954 2101.98 704.864 2107.63 684.75C2109.04 679.386 2106.22 675.364 2102.68 674.693Z" fill="#F8FCFE"/>
<path d="M630.181 710.376C641.567 710.376 652.32 707.299 661.808 701.487C663.39 700.462 665.287 701.145 666.236 702.513C677.939 723.367 698.497 737.385 720.953 740.803C724.115 741.145 727.278 741.487 730.441 741.487C749.418 741.487 767.762 733.624 781.678 720.291C774.72 716.872 768.078 712.427 761.437 707.983C759.855 706.957 759.539 704.906 760.488 703.197C761.436 701.487 763.334 701.145 764.916 702.171C773.771 707.983 782.943 714.137 792.748 717.556C803.502 721.316 813.939 720.974 821.846 717.214C823.427 716.53 825.325 717.214 825.957 718.923C826.59 720.632 825.957 722.684 824.376 723.367C819.316 725.761 813.623 727.128 807.613 727.128C802.237 727.128 796.543 726.103 790.534 724.051C790.534 724.051 790.218 724.051 790.218 723.709C806.664 745.932 834.181 759.607 863.278 759.607C885.418 759.607 905.976 751.744 921.158 737.726C921.79 737.043 922.423 737.043 923.372 737.043H923.688C924.637 737.043 925.269 737.726 925.902 738.41C936.023 753.111 953.418 762 972.395 762C990.739 762 1007.5 753.795 1017.62 740.12C1026.48 727.812 1041.98 726.103 1057.16 724.393C1065.38 723.368 1073.92 722.684 1080.56 719.949C1115.35 706.273 1145.08 673.795 1156.15 637.556C1162.48 617.043 1165.64 585.932 1146.03 553.795C1130.85 528.838 1101.75 512.769 1072.34 512.769C1055.26 512.769 1039.45 517.897 1026.79 527.812C1026.16 528.496 1024.9 528.496 1024.26 528.496C1023.32 528.154 1022.68 527.47 1022.05 526.444C1007.5 490.889 975.242 465.248 939.502 460.462C937.288 460.12 935.39 460.12 933.493 460.12C925.586 460.12 919.892 462.513 917.046 466.957C916.413 467.983 915.465 468.325 914.2 468.325C913.251 468.325 912.302 467.641 911.669 466.615C891.744 426.615 848.413 402 799.074 402C785.157 402 771.874 404.051 758.906 407.812C723.799 418.752 694.069 440.974 675.725 471.06C657.064 501.487 651.055 540.462 659.594 573.282C671.613 562.684 687.427 557.897 702.925 559.949C707.036 560.632 711.464 562.342 713.995 565.419C719.371 556.872 729.176 551.402 738.981 552.085C750.999 552.769 761.753 562 765.548 574.65C766.181 576.359 765.232 578.41 763.334 579.094C761.753 579.778 759.855 578.752 759.223 576.701C756.376 566.786 747.52 559.607 738.348 558.923C728.86 558.239 719.688 565.077 716.841 574.65C716.208 576.359 714.943 577.385 713.362 577.043C711.781 576.701 710.832 575.333 710.832 573.624C710.832 570.547 706.404 567.812 701.976 567.128C686.478 564.735 670.032 570.889 659.278 583.197C648.525 595.504 643.78 613.282 646.627 630.034C646.943 631.744 645.678 633.795 644.097 634.137C643.78 634.137 643.78 634.137 643.464 634.137C641.883 634.137 640.618 633.111 640.301 631.402C637.139 613.624 641.883 594.137 652.952 580.462C645.994 577.385 638.404 576.017 630.813 576.017C610.255 576.017 590.329 586.273 578.943 603.026C561.548 628.325 563.446 666.273 582.739 689.521C594.125 702.171 611.836 710.376 630.181 710.376ZM1014.14 730.889C1017.94 729.863 1021.1 726.786 1024.26 724.393C1036.6 714.137 1047.67 703.88 1051.78 689.863C1052.1 688.838 1053.05 687.812 1054 687.47C1054.94 687.128 1056.21 687.47 1056.84 688.154C1060.32 691.914 1065.7 693.624 1071.39 693.282C1076.77 692.94 1081.83 690.205 1084.99 686.103C1088.15 682 1089.1 675.504 1086.26 672.769C1084.99 671.402 1084.67 669.35 1085.94 667.983C1087.2 666.615 1089.1 666.273 1090.37 667.641C1096.69 673.453 1095.11 684.051 1090.05 690.547C1085.62 696.017 1078.98 699.436 1071.71 700.12C1066.01 700.462 1060.64 699.094 1056.21 696.017C1050.83 709.692 1040.08 719.607 1028.06 729.521C1024.58 732.256 1020.79 735.675 1015.73 737.043C1013.83 737.726 1011.61 738.068 1009.4 738.068C1004.66 738.068 999.911 736.701 995.8 735.675L976.823 730.205C975.241 729.863 974.293 727.812 974.609 726.103C974.925 724.393 976.823 723.368 978.404 723.709L997.697 729.521C1003.07 730.889 1008.77 732.598 1014.14 730.889ZM937.921 526.103C946.46 521.316 957.53 521.658 966.069 526.786C973.344 531.231 978.088 539.436 979.669 548.325C986.628 546.615 994.535 549.35 999.595 555.504C1004.66 562 1006.87 571.231 1005.92 581.145C1005.6 583.538 1004.34 586.273 1002.13 587.299C1001.49 587.641 1000.86 587.641 1000.23 587.641C999.279 587.641 998.646 587.299 997.697 586.957C996.116 585.932 995.8 583.88 996.748 582.171C997.381 581.145 998.33 580.803 999.279 580.803V580.462C1000.23 572.598 998.646 565.077 994.534 560.291C990.423 555.162 983.149 553.111 978.088 556.188C977.139 556.872 975.874 556.872 974.925 556.188C973.976 555.504 973.344 554.479 973.344 553.453C973.344 545.248 968.916 537.043 962.274 532.94C955.632 528.838 947.093 528.496 940.451 532.256C938.869 533.282 936.972 532.598 936.339 530.889C935.707 529.179 936.339 527.128 937.921 526.103ZM813.939 435.162C825.009 432.085 837.344 434.479 847.781 442C858.218 449.521 865.176 460.803 867.074 472.769C867.39 474.479 866.125 476.53 864.544 476.53C864.227 476.53 864.227 476.53 863.911 476.53C862.33 476.53 861.065 475.162 860.748 473.795C859.167 463.538 853.157 453.966 844.302 447.47C835.446 440.974 825.009 438.923 815.52 441.658C813.939 442 812.041 440.974 811.725 439.265C811.092 437.214 812.041 435.504 813.939 435.162Z" fill="white"/>
<path d="M1108.09 619.599C1102.39 621.648 1096.06 620.965 1090.36 623.014C1084.03 625.405 1078.65 630.528 1072.95 634.285C1054.26 646.581 1028.3 644.873 1011.52 629.845C999.17 658.877 960.54 670.148 936.476 651.363C892.78 693.032 817.104 686.542 780.374 637.701C759.793 666.049 712.614 662.975 695.199 632.236C677.467 639.408 659.736 646.239 641.054 649.655C619.523 653.754 595.458 653.07 577.727 638.725C574.244 635.993 571.077 632.236 568.228 628.137C564.428 648.972 569.494 671.856 582.793 687.567C594.192 701.229 612.24 709.426 630.605 709.426C642.004 709.426 652.77 706.352 662.269 700.546C663.852 699.521 665.752 700.204 666.701 701.57C678.417 722.405 698.998 736.408 721.48 739.824C724.646 740.165 727.812 740.507 730.979 740.507C749.977 740.507 768.342 732.651 782.274 719.331C775.308 715.915 768.658 711.475 762.009 707.035C760.426 706.011 760.109 703.961 761.059 702.254C762.009 700.546 763.909 700.204 765.492 701.229C774.358 707.035 783.54 713.183 793.356 716.599C804.122 720.356 814.571 720.014 822.487 716.257C824.07 715.574 825.97 716.257 826.603 717.965C827.236 719.673 826.603 721.722 825.02 722.405C819.953 724.796 814.254 726.162 808.238 726.162C802.855 726.162 797.156 725.137 791.14 723.088C791.14 723.088 790.823 723.088 790.823 722.746C807.288 744.947 834.835 758.609 863.966 758.609C886.13 758.609 906.712 750.754 921.911 736.75C922.544 736.067 923.177 736.067 924.127 736.067H924.444C925.393 736.067 926.027 736.75 926.66 737.433C936.792 752.12 954.207 761 973.205 761C991.57 761 1008.35 752.803 1018.48 739.141C1027.35 726.845 1042.87 725.137 1058.06 723.43C1066.3 722.405 1074.85 721.722 1081.5 718.989C1116.33 705.327 1146.09 672.88 1157.17 636.676C1162.55 619.257 1165.72 593.982 1154 567C1146.09 578.954 1137.54 590.908 1128.67 602.18C1122.97 609.011 1116.64 616.525 1108.09 619.599ZM1090.68 690.299C1086.24 695.764 1079.6 699.18 1072.31 699.863C1066.61 700.204 1061.23 698.838 1056.8 695.764C1051.41 709.426 1040.65 719.331 1028.62 729.236C1025.13 731.968 1021.33 735.384 1016.27 736.75C1014.37 737.433 1012.15 737.775 1009.94 737.775C1005.19 737.775 1000.44 736.408 996.32 735.384L977.638 729.577C976.055 729.236 975.105 727.187 975.422 725.479C975.739 723.771 977.638 722.747 979.222 723.088L998.536 728.894C1003.6 730.261 1009.62 732.31 1015 730.602C1018.8 729.577 1021.97 726.504 1025.13 724.113C1037.48 713.866 1048.57 703.62 1052.68 689.616C1053 688.592 1053.95 687.567 1054.9 687.225C1055.85 686.884 1057.11 687.225 1057.75 687.908C1061.23 691.666 1066.61 693.373 1072.31 693.032C1077.7 692.69 1082.76 689.958 1085.93 685.859C1089.09 681.761 1090.04 675.271 1087.19 672.539C1085.93 671.173 1085.61 669.123 1086.88 667.757C1088.14 666.391 1090.04 666.049 1091.31 667.416C1097.33 673.222 1095.74 683.81 1090.68 690.299Z" fill="#FCFEFF"/>
<path d="M630.702 716.767C642.093 716.767 653.167 714.035 662.66 708.57C675.632 729.405 696.832 743.75 720.246 747.165C723.726 747.507 727.207 747.848 730.687 747.848C750.305 747.848 769.922 739.993 784.793 726.331C802.512 750.922 832.254 765.951 863.895 765.951C886.36 765.951 907.243 758.437 923.38 744.433C934.77 759.12 953.122 768 973.056 768C993.306 768 1011.97 758.778 1023.36 743.408C1030.64 733.503 1044.25 732.137 1058.49 730.429C1067.03 729.405 1075.89 728.38 1083.48 725.648C1120.5 710.961 1150.88 677.83 1162.9 638.893C1172.39 607.47 1168.6 576.389 1151.83 549.065C1135.06 521.741 1105 505.005 1072.72 505.005C1055.64 505.005 1039.82 509.786 1026.53 519.008C1010.39 483.487 977.169 457.529 940.466 452.747C929.391 451.381 920.532 453.089 915.153 458.212C893.321 418.592 849.024 394 799.031 394C784.793 394 770.555 396.049 757.266 400.148C720.562 411.419 689.871 434.645 670.57 466.068C651.269 497.49 644.624 537.11 653.167 571.607C646.206 568.875 638.613 567.85 631.019 567.85C608.554 567.85 586.722 579.463 574.065 597.907C555.081 625.573 556.979 667.242 578.495 692.858C591.151 707.545 610.452 716.767 630.702 716.767ZM579.128 601.664C590.518 584.928 610.452 574.681 631.019 574.681C638.929 574.681 646.523 576.048 653.167 579.121C642.093 592.784 637.347 612.252 640.511 630.013C640.827 631.721 642.093 632.745 643.675 632.745C643.991 632.745 643.992 632.745 644.308 632.745C645.89 632.404 647.156 630.696 646.839 628.647C643.991 611.91 648.738 594.15 659.495 581.854C670.253 569.558 686.707 563.41 702.211 565.801C706.64 566.484 711.07 568.875 711.07 572.29C711.07 573.998 712.019 575.364 713.601 575.706C715.183 576.048 716.765 575.023 717.082 573.315C719.929 563.752 729.422 557.262 738.597 557.604C747.773 558.287 756.633 565.801 759.48 575.364C760.113 577.072 761.695 578.097 763.594 577.755C765.176 577.072 766.125 575.364 765.808 573.315C762.012 560.678 751.254 551.456 739.23 550.773C729.422 550.089 719.613 555.554 714.234 564.093C711.386 561.019 707.273 559.311 703.16 558.628C687.972 556.237 671.835 561.361 659.812 571.949C650.952 539.16 656.964 500.223 675.949 469.825C694.3 439.768 724.043 417.567 759.164 406.637C772.137 402.88 785.426 400.831 799.348 400.831C849.024 400.831 892.055 425.423 911.989 465.384C912.622 466.409 913.571 467.092 914.52 467.092C915.786 467.092 916.735 466.751 917.368 465.726C920.532 461.286 925.911 458.895 933.821 458.895C935.72 458.895 937.934 458.895 939.833 459.237C975.27 464.018 1007.86 489.635 1022.42 525.156C1022.73 526.181 1023.68 526.864 1024.63 527.205C1025.58 527.547 1026.53 527.205 1027.16 526.522C1039.82 516.617 1055.64 511.494 1072.72 511.494C1102.47 511.494 1131.26 527.547 1146.45 552.48C1166.06 584.586 1162.9 615.668 1156.57 636.161C1145.5 672.365 1116.07 704.813 1080.95 718.475C1074.31 721.207 1065.76 722.232 1057.54 722.915C1042.35 724.623 1026.84 726.331 1017.99 738.627C1007.86 752.289 991.091 760.486 972.739 760.486C953.438 760.486 936.036 751.606 926.227 736.919C925.594 736.236 924.962 735.553 924.012 735.553H923.696C923.063 735.553 922.114 735.894 921.481 736.236C906.294 750.239 885.727 758.095 863.579 758.095C834.469 758.095 806.942 744.433 790.488 722.232C790.488 722.232 790.805 722.232 790.805 722.574C796.5 724.623 802.512 725.648 807.891 725.648C813.903 725.648 819.598 724.281 824.66 721.89C826.242 721.207 826.875 719.158 826.242 717.45C825.61 715.742 823.711 715.059 822.129 715.742C813.903 719.841 803.461 719.841 793.02 716.084C783.211 712.669 774.035 706.521 765.176 700.714C763.594 699.69 761.695 700.373 760.746 701.739C759.797 703.447 760.43 705.496 761.695 706.521C768.023 710.961 774.668 715.401 781.945 718.816C768.023 732.137 749.672 739.993 730.687 739.993C727.523 739.993 724.359 739.651 721.195 739.31C698.73 736.236 678.48 721.89 666.456 701.056C665.507 699.348 663.609 699.006 662.027 700.031C652.851 705.837 642.093 708.911 630.386 708.911C612.034 708.911 594.315 700.714 582.608 687.052C563.624 664.851 562.042 626.939 579.128 601.664Z" fill="#F8FCFE"/>
<path d="M978.847 723.361C977.269 723.02 975.376 724.042 975.06 725.744C974.745 727.446 975.692 729.489 977.269 729.829L996.518 735.617C1000.62 736.638 1005.04 738 1010.09 738C1011.98 738 1014.19 737.66 1016.4 736.979C1021.13 735.617 1025.23 732.212 1028.7 729.489C1040.38 719.616 1051.42 709.743 1056.79 696.124C1061.21 699.189 1066.57 700.55 1072.25 700.21C1079.51 699.869 1086.14 696.465 1090.55 690.677C1095.6 684.209 1097.18 673.655 1090.87 667.867C1089.61 666.505 1087.4 666.846 1086.45 668.207C1085.19 669.569 1085.5 671.952 1086.77 672.974C1089.92 675.697 1088.66 682.506 1085.5 686.251C1082.35 690.337 1077.3 693.06 1071.94 693.401C1066.57 693.741 1061.21 692.039 1057.42 688.294C1056.47 687.613 1055.53 687.273 1054.58 687.613C1053.63 687.954 1052.69 688.635 1052.37 689.996C1048.58 703.955 1037.22 714.168 1024.92 724.382C1022.08 726.765 1018.61 729.829 1014.82 730.851C1009.77 732.553 1003.78 730.851 998.411 729.148L978.847 723.361Z" fill="#F8FCFE"/>
<path d="M941.238 531.769C947.874 528.018 956.406 528.359 963.043 532.45C969.679 536.542 973.787 544.724 974.104 552.907C974.104 554.27 974.736 555.293 975.684 555.634C976.632 556.316 977.896 556.316 978.844 555.634C983.9 552.566 991.169 554.611 995.277 559.725C999.385 564.498 1000.97 571.999 1000.02 579.84V580.181C999.069 580.181 998.121 580.863 997.489 581.545C996.541 583.25 996.857 585.295 998.437 586.318C999.069 587 1000.02 587 1000.97 587C1001.6 587 1002.23 587 1002.86 586.659C1005.07 585.636 1006.34 582.909 1006.65 580.522C1007.92 570.635 1005.71 561.43 1000.33 554.952C995.277 548.815 987.376 546.088 980.424 547.792C978.844 538.928 973.788 530.746 966.835 526.314C958.619 520.859 947.558 520.518 938.709 525.632C937.129 526.655 936.497 528.7 937.445 530.064C937.761 532.109 939.657 532.45 941.238 531.769Z" fill="#F8FCFE"/>
<path d="M815.993 441.861C825.556 439.105 836.075 441.517 845 447.718C853.925 454.263 859.982 463.909 861.576 474.244C861.894 475.966 863.169 477 864.763 477C864.763 477 865.082 477 865.401 477C866.995 476.656 868.27 474.933 867.951 473.211C866.357 460.809 859.026 449.44 848.506 442.206C837.987 434.627 825.556 432.215 814.399 435.316C812.805 435.66 811.53 437.727 812.168 439.45C812.486 441.172 814.399 442.206 815.993 441.861Z" fill="#F8FCFE"/>
<path d="M-279.609 513.401C-260.79 513.401 -243.917 519.893 -231.587 530.928C-228.991 532.875 -225.746 533.524 -223.151 531.577C-220.555 529.629 -219.906 526.384 -221.204 523.138C-230.289 506.261 -230.938 484.84 -223.151 464.718C-214.065 440.051 -193.299 418.63 -169.937 408.893C-129.702 392.665 -77.1371 401.753 -31.7108 432.262C-49.8813 442.648 -66.105 456.928 -77.1371 474.454C-84.2755 485.489 -88.8185 497.173 -94.0101 508.858C-119.319 504.314 -147.873 517.945 -159.554 541.962C-171.235 567.278 -164.096 599.734 -142.681 618.559C-141.383 619.857 -140.085 619.856 -138.787 619.856C-136.84 619.856 -134.894 619.208 -133.596 617.26C-131 614.664 -131.649 610.12 -134.245 608.172C-151.766 593.243 -157.607 567.278 -147.873 547.156C-138.138 527.033 -112.829 515.349 -92.0629 521.84C-88.8181 523.138 -85.5737 521.191 -84.2758 517.945C-79.0842 504.963 -73.8925 491.98 -66.7541 480.296C-38.8492 436.156 22.8007 415.385 71.4719 434.209C74.7166 435.507 78.6107 433.56 79.9086 430.314C81.2065 427.069 79.2594 423.174 76.0146 421.876C44.2161 409.542 7.87488 412.139 -22.6257 425.771C-22.6257 425.121 -22.6257 423.823 -22.6257 423.174C-36.2536 379.683 -3.80585 335.543 27.9926 310.228C72.1212 275.824 127.931 257 185.687 257C216.188 257 246.039 262.193 273.295 272.579C354.414 303.087 416.713 378.385 432.288 463.419C432.937 465.367 434.234 467.314 436.181 467.963C438.128 468.612 440.724 468.612 442.022 467.314C464.086 453.033 490.693 445.244 517.949 445.244C540.662 445.244 562.726 450.437 582.195 460.823C626.323 483.542 655.526 530.279 658.122 579.612C658.122 581.559 659.42 583.506 661.367 584.804C663.313 586.103 665.909 586.103 667.856 584.804C676.292 580.91 684.729 578.962 694.463 578.962C728.208 578.962 761.305 604.927 768.443 636.734C777.528 678.277 745.73 725.663 702.25 735.4C695.761 736.698 689.271 737.347 682.782 737.347C647.09 737.347 610.748 715.926 591.929 684.119C608.153 670.488 619.834 651.014 623.728 630.243C624.377 626.997 621.781 623.102 618.536 622.453C614.642 621.804 611.398 624.4 610.749 627.646C605.557 656.207 582.844 680.874 554.939 689.312C527.034 697.751 494.587 688.663 474.469 667.891C471.874 665.295 467.98 665.295 465.384 667.891C462.788 670.488 462.788 674.383 465.384 676.979C482.906 695.154 508.215 705.54 533.524 705.54C541.96 705.54 550.396 704.242 558.833 702.294C564.673 700.347 571.163 697.751 576.354 695.154C567.269 747.733 528.981 795.118 479.661 814.592C461.49 821.732 442.671 825.627 422.553 825.627C384.265 825.627 345.977 811.995 318.072 787.978C316.775 786.68 315.477 786.68 313.53 786.68C312.881 786.68 312.881 786.68 312.232 786.68C310.285 787.329 308.338 788.627 307.689 789.925C269.401 867.819 182.442 919.1 95.4831 915.854C12.4176 912.609 -66.754 858.083 -101.148 782.785C-97.2546 783.434 -93.3608 783.434 -88.8181 783.434C-70.6475 783.434 -52.4772 779.54 -36.2535 771.75C-33.0087 770.452 -31.7108 766.557 -33.0087 763.312C-34.3066 760.066 -38.2002 758.768 -41.4449 760.066C-76.4882 776.294 -119.319 773.049 -151.117 751.628C-154.362 749.68 -158.256 750.329 -160.202 753.575C-162.149 756.821 -161.5 760.715 -158.256 762.662C-149.17 769.154 -138.787 773.698 -128.404 777.592C-146.575 786.031 -166.692 791.224 -187.458 791.224C-212.118 791.224 -235.481 784.733 -255.598 773.048C-298.429 747.733 -324.387 697.102 -319.844 647.12C-319.844 644.523 -320.493 642.576 -322.44 641.278C-337.366 630.243 -347.749 612.716 -350.345 591.944C-352.941 571.822 -347.749 551.699 -336.068 537.419C-323.089 522.489 -302.323 513.401 -279.609 513.401ZM323.264 401.753C345.978 401.104 368.042 414.735 377.776 434.858C379.723 439.402 381.669 445.244 379.723 449.788C379.074 451.735 377.127 453.033 375.18 453.683C373.882 453.033 371.935 452.384 369.988 452.384C366.744 451.735 364.148 453.683 362.85 456.279C361.552 458.876 362.85 462.121 364.797 464.068C367.393 466.016 369.989 466.665 372.584 466.665C380.372 469.91 386.861 477.7 390.106 487.437C394 499.77 391.404 511.454 383.617 518.594C381.021 521.191 381.021 525.086 383.617 527.682C384.914 528.98 386.861 529.629 388.159 529.629C390.106 529.629 391.404 528.98 392.702 527.682C403.734 517.296 406.978 499.77 402.436 483.542C399.84 473.805 394 466.016 387.51 460.174C389.457 458.226 390.755 456.279 391.404 453.683C394.649 446.542 393.351 438.104 389.457 428.367C377.776 403.051 350.52 386.823 322.615 387.472C318.721 387.472 316.126 390.718 316.126 393.964C316.126 399.157 319.371 401.753 323.264 401.753Z" fill="white"/>
<path d="M-319.525 648.412C-319.525 645.818 -320.173 643.873 -322.118 642.576C-337.031 631.553 -347.406 614.046 -350 593.297C-350 592.648 -350 592.648 -350 592C-333.79 603.671 -311.095 607.562 -294.885 596.539C-292.94 633.498 -274.136 671.106 -242.364 688.613C-209.943 706.769 -163.906 700.285 -142.508 669.81C-107.494 719.089 -36.1688 722.331 23.485 713.901C64.3348 708.066 114.911 687.317 112.317 645.818C147.98 682.129 201.798 700.285 251.726 692.504C302.302 684.723 348.339 652.302 371.682 606.913C432.632 643.225 514.332 642.576 573.986 604.32C583.063 617.936 595.383 629.608 609 638.037C601.219 662.677 580.47 682.778 555.83 690.559C527.949 698.988 495.528 689.91 475.427 669.161C472.834 666.567 468.943 666.567 466.35 669.161C463.756 671.755 463.756 675.645 466.35 678.239C483.857 696.394 509.145 706.769 534.433 706.769C542.862 706.769 551.292 705.472 559.721 703.527C565.557 701.582 572.04 698.988 577.228 696.394C568.15 748.916 529.894 796.25 480.615 815.702C462.459 822.835 443.655 826.725 423.555 826.725C385.298 826.725 347.042 813.108 319.16 789.117C317.863 787.82 316.566 787.821 314.621 787.821C313.973 787.821 313.973 787.821 313.325 787.821C311.38 788.469 309.434 789.766 308.786 791.063C270.53 868.872 183.642 920.097 96.7553 916.855C13.7587 913.612 -65.3474 859.146 -99.7131 783.93C-95.8227 784.578 -91.9324 784.579 -87.3936 784.579C-69.238 784.579 -51.0823 780.688 -34.872 772.907C-31.63 771.61 -30.3331 767.72 -31.63 764.478C-32.9268 761.236 -36.8172 759.939 -40.0593 761.236C-75.0734 777.446 -117.869 774.204 -149.641 752.806C-152.883 750.861 -156.774 751.509 -158.719 754.751C-160.664 757.993 -160.015 761.884 -156.773 763.829C-147.695 770.313 -137.321 774.852 -126.946 778.743C-145.102 787.172 -165.203 792.359 -185.952 792.359C-210.591 792.359 -233.934 785.875 -254.035 774.204C-298.127 748.267 -324.063 698.34 -319.525 648.412Z" fill="#FCFEFF"/>
<path d="M702.398 737.052C695.904 738.35 689.41 739 682.916 739C647.199 739 610.833 717.571 592 685.753C604.988 675.364 614.729 661.078 619.924 645.493C666.032 668.87 725.776 666.922 768.637 639C777.079 681.208 745.259 727.311 702.398 737.052Z" fill="#FCFEFF"/>
<path d="M-279.789 501.06C-265.517 501.06 -251.894 504.305 -240.217 510.146C-243.46 494.569 -242.163 477.695 -235.675 460.821C-225.296 432.265 -202.59 408.252 -174.695 397.868C-134.474 381.642 -83.2247 388.132 -37.1652 414.093C-42.355 369.96 -10.5675 327.126 21.22 302.464C67.2795 266.119 126.313 246 187.294 246C219.73 246 250.22 251.841 279.413 262.874C361.801 294.027 426.024 368.662 444.837 454.331C467.543 442 492.843 435.51 520.089 435.51C544.741 435.51 569.392 441.351 590.152 452.384C635.562 475.749 666.701 522.477 671.891 573.099C679.676 570.503 687.461 569.205 695.894 569.205C736.115 569.205 774.39 599.06 782.174 636.702C792.554 686.026 757.523 739.245 706.274 750.927C699.138 752.874 691.353 753.523 683.568 753.523C647.888 753.523 611.56 734.702 589.503 705.497C577.826 760.662 537.605 809.338 485.707 830.106C466.245 837.894 445.486 841.788 423.43 841.788C385.155 841.788 346.88 828.808 317.039 806.093C276.169 881.378 191.835 932 105.554 932C102.311 932 99.0669 932 96.472 932C7.59662 928.106 -77.3862 869.047 -113.066 787.921C-135.123 800.252 -159.774 806.742 -186.372 806.742C-213.618 806.742 -239.568 799.603 -261.624 786.623C-307.684 759.364 -335.579 705.497 -332.335 652.278C-348.553 639.298 -359.582 619.179 -362.177 596.464C-365.42 572.451 -358.933 549.086 -345.31 532.212C-331.038 512.093 -306.386 501.06 -279.789 501.06ZM-350.5 593.868C-347.905 613.987 -337.525 632.159 -322.604 643.192C-320.658 644.49 -320.01 646.437 -320.01 649.033C-324.551 699.007 -298.602 748.98 -255.786 774.941C-235.675 787.272 -212.321 793.113 -187.669 793.113C-166.91 793.113 -146.151 788.57 -128.636 779.483C-139.015 776.238 -149.395 771.046 -158.477 764.556C-161.721 762.609 -162.369 758.716 -160.423 755.47C-158.477 752.225 -154.585 751.576 -151.341 753.523C-119.554 774.94 -76.0888 778.186 -41.7064 761.961C-38.4628 760.663 -34.5705 761.961 -33.273 765.206C-31.9756 768.451 -33.273 772.345 -36.5167 773.643C-52.7348 781.431 -70.8989 785.325 -89.0632 785.325C-92.9556 785.325 -96.8481 785.325 -101.389 784.676C-67.0067 859.961 12.1376 913.828 95.1744 917.722C182.752 921.616 269.033 869.695 307.308 791.815C307.956 789.868 309.903 788.57 311.849 788.57C312.497 788.57 312.498 788.57 313.146 788.57C314.444 788.57 316.39 789.219 317.687 789.868C345.582 813.881 383.209 827.51 422.132 827.51C442.243 827.51 461.704 823.616 479.22 816.477C529.172 796.358 566.798 749.629 575.88 697.06C570.041 700.305 564.203 702.901 558.364 704.199C549.931 706.795 541.497 707.444 533.064 707.444C507.764 707.444 482.463 697.06 464.948 678.887C462.353 676.291 462.353 672.398 464.948 669.802C467.543 667.206 471.435 667.206 474.03 669.802C494.141 691.219 526.577 699.656 554.472 691.219C582.367 682.782 605.073 658.119 610.262 629.563C610.911 626.318 614.155 623.722 618.047 624.371C621.291 625.02 623.886 628.265 623.237 632.159C619.344 652.927 607.667 672.398 591.449 686.027C610.262 717.828 645.942 739.245 682.271 739.245C688.758 739.245 695.245 738.596 701.732 737.298C745.197 727.563 776.985 680.186 767.902 638.649C760.766 606.848 727.681 580.888 693.948 580.888C684.217 580.888 675.135 582.835 667.35 586.729C665.404 588.027 662.809 587.378 660.863 586.729C658.917 585.431 657.619 583.483 657.619 581.536C655.673 532.212 625.832 485.483 581.718 462.768C562.257 453.033 540.2 447.192 517.495 447.192C490.248 447.192 463.002 454.98 441.594 469.258C439.648 470.556 437.701 470.557 435.755 469.908C433.809 469.259 432.512 467.311 431.863 465.364C416.294 380.345 354.016 305.06 272.925 274.556C245.679 264.172 215.837 258.98 185.347 258.98C127.611 258.98 71.1719 277.801 27.7073 312.199C-4.08026 337.51 -36.5168 381.642 -22.8936 425.126C-22.8936 425.775 -22.8936 427.073 -22.8936 427.722C7.5965 414.093 43.9252 411.497 75.7127 423.828C78.9563 425.126 80.9027 429.02 79.6053 432.265C78.3079 435.51 74.4152 437.457 71.1716 436.159C22.5172 417.338 -39.1116 438.106 -67.0068 482.238C-74.1428 493.921 -79.3327 506.901 -84.5225 519.881C-85.8199 523.126 -89.0632 524.424 -92.3069 523.775C-113.066 517.285 -138.367 528.967 -148.097 549.086C-157.828 569.205 -151.99 595.166 -134.474 610.093C-131.879 612.689 -131.231 616.583 -133.825 619.179C-135.123 620.477 -137.069 621.775 -139.015 621.775C-140.313 621.775 -142.259 621.126 -142.908 620.477C-164.316 602.305 -172.1 569.205 -159.774 543.894C-148.097 519.881 -120.202 505.603 -94.2534 510.795C-89.7123 499.113 -84.5222 487.431 -77.3862 476.398C-66.3579 458.225 -50.1398 443.947 -31.9755 434.212C-77.3862 404.358 -129.933 395.272 -170.154 410.848C-193.508 419.934 -214.267 441.351 -223.349 466.662C-231.134 487.431 -230.485 508.199 -221.403 525.073C-220.106 527.669 -220.755 531.563 -223.349 533.51C-225.944 535.457 -229.188 535.457 -231.783 532.861C-244.109 521.828 -260.976 515.338 -279.789 515.338C-302.494 515.338 -323.253 524.424 -336.228 540.649C-347.905 553.629 -353.095 573.099 -350.5 593.868Z" fill="#F8FCFE"/>
<path d="M321.937 389.07C349.832 387.774 377.077 404.624 388.754 429.899C393.295 439.62 393.944 448.045 390.701 455.174C390.052 457.767 388.106 459.711 386.808 461.655C393.295 467.488 399.133 475.265 401.728 484.986C406.918 501.836 403.026 518.686 391.998 529.055C390.7 530.352 389.403 531 387.457 531C385.511 531 384.213 530.352 382.916 529.055C380.321 526.463 380.321 522.575 382.916 519.983C390.052 512.854 392.647 500.54 389.403 488.875C386.16 479.153 380.321 471.376 371.888 468.136C369.293 468.136 366.698 466.84 364.103 465.543C361.509 463.599 360.86 460.359 362.157 457.766C363.455 455.174 366.049 453.23 369.293 453.878C371.239 454.526 372.537 454.526 374.483 455.174C376.429 454.526 378.375 453.23 379.024 451.286C380.97 446.749 379.024 440.916 377.077 436.38C367.347 415.641 345.291 402.032 322.586 403.328C318.694 403.328 316.099 400.735 316.099 396.847C315.451 392.31 318.045 389.07 321.937 389.07Z" fill="#F8FCFE"/>
<g clip-path="url(#clip1_3_664)">
<path d="M524.181 570.456C524.181 570.456 517.578 573.851 514.355 576.163C511.458 578.24 508.102 581.87 508.102 581.87C508.102 581.87 504.776 578.255 501.849 576.163C498.648 573.875 492.023 570.456 492.023 570.456" stroke="#C1E3F8" stroke-width="2" stroke-linecap="round"/>
<path d="M573.974 528.948C573.974 528.948 567.371 532.344 564.148 534.655C561.251 536.733 557.895 540.363 557.895 540.363C557.895 540.363 554.569 536.748 551.642 534.655C548.441 532.368 541.816 528.948 541.816 528.948" stroke="#C1E3F8" stroke-width="2" stroke-linecap="round"/>
<path d="M535.592 551.777C535.592 551.777 528.989 555.173 525.766 557.484C522.869 559.562 519.513 563.192 519.513 563.192C519.513 563.192 516.188 559.577 513.26 557.484C510.059 555.197 503.434 551.777 503.434 551.777" stroke="#C1E3F8" stroke-width="2" stroke-linecap="round"/>
<path d="M480.612 554.89C480.612 554.89 476.992 556.742 475.224 558.003C473.635 559.136 471.795 561.116 471.795 561.116C471.795 561.116 469.971 559.144 468.366 558.003C466.611 556.755 462.977 554.89 462.977 554.89" stroke="#C1E3F8" stroke-width="2" stroke-linecap="round"/>
<path d="M484.761 545.551C484.761 545.551 482.418 546.786 481.274 547.627C480.246 548.382 479.055 549.702 479.055 549.702C479.055 549.702 477.875 548.388 476.837 547.627C475.701 546.795 473.35 545.551 473.35 545.551" stroke="#C1E3F8" stroke-width="2" stroke-linecap="round"/>
<path d="M512.771 540.363C512.771 540.363 510.854 541.288 509.918 541.919C509.077 542.485 508.102 543.475 508.102 543.475C508.102 543.475 507.137 542.489 506.287 541.919C505.358 541.295 503.434 540.363 503.434 540.363" stroke="#C1E3F8" stroke-width="2" stroke-linecap="round"/>
</g>
<g clip-path="url(#clip2_3_664)">
<path d="M1107.14 212.093C1107.14 212.093 1094.83 218.426 1088.82 222.737C1083.41 226.611 1077.16 233.38 1077.16 233.38C1077.16 233.38 1070.95 226.639 1065.49 222.737C1059.53 218.471 1047.17 212.093 1047.17 212.093" stroke="#C1E3F8" stroke-linecap="round"/>
<path d="M1200 134.687C1200 134.687 1187.69 141.02 1181.68 145.33C1176.28 149.204 1170.02 155.974 1170.02 155.974C1170.02 155.974 1163.82 149.233 1158.36 145.33C1152.39 141.064 1140.03 134.687 1140.03 134.687" stroke="#C1E3F8" stroke-linecap="round"/>
<path d="M1128.42 177.261C1128.42 177.261 1116.11 183.593 1110.1 187.904C1104.7 191.778 1098.44 198.548 1098.44 198.548C1098.44 198.548 1092.24 191.807 1086.78 187.904C1080.81 183.638 1068.45 177.261 1068.45 177.261" stroke="#C1E3F8" stroke-linecap="round"/>
<path d="M1025.89 183.066C1025.89 183.066 1019.14 186.52 1015.84 188.871C1012.88 190.984 1009.44 194.677 1009.44 194.677C1009.44 194.677 1006.04 191 1003.05 188.871C999.776 186.544 993 183.066 993 183.066" stroke="#C1E3F8" stroke-linecap="round"/>
<path d="M1033.63 165.65C1033.63 165.65 1029.26 167.952 1027.13 169.519C1025.21 170.928 1022.99 173.389 1022.99 173.389C1022.99 173.389 1020.79 170.938 1018.85 169.519C1016.73 167.969 1012.35 165.65 1012.35 165.65" stroke="#C1E3F8" stroke-linecap="round"/>
<path d="M1085.87 155.974C1085.87 155.974 1082.29 157.7 1080.55 158.876C1078.98 159.932 1077.16 161.778 1077.16 161.778C1077.16 161.778 1075.36 159.94 1073.77 158.876C1072.04 157.713 1068.45 155.974 1068.45 155.974" stroke="#C1E3F8" stroke-linecap="round"/>
</g>
<g clip-path="url(#clip3_3_664)">
<path d="M1139.27 410.621C1140.7 410.621 1141.98 411.123 1142.91 411.976C1143.11 412.126 1143.35 412.176 1143.55 412.026C1143.75 411.875 1143.8 411.625 1143.7 411.374C1143.01 410.07 1142.96 408.415 1143.55 406.86C1144.24 404.954 1145.81 403.299 1147.59 402.546C1150.64 401.292 1154.62 401.995 1158.07 404.352C1156.69 405.154 1155.46 406.258 1154.62 407.612C1154.08 408.465 1153.74 409.368 1153.34 410.27C1151.42 409.919 1149.26 410.973 1148.37 412.828C1147.49 414.784 1148.03 417.292 1149.65 418.747C1149.75 418.847 1149.85 418.847 1149.95 418.847C1150.1 418.847 1150.24 418.797 1150.34 418.647C1150.54 418.446 1150.49 418.095 1150.29 417.944C1148.96 416.791 1148.52 414.784 1149.26 413.23C1150 411.675 1151.92 410.772 1153.49 411.273C1153.74 411.374 1153.98 411.223 1154.08 410.973C1154.47 409.969 1154.87 408.966 1155.41 408.063C1157.53 404.653 1162.2 403.048 1165.89 404.502C1166.14 404.603 1166.43 404.452 1166.53 404.201C1166.63 403.951 1166.48 403.65 1166.23 403.549C1163.82 402.596 1161.07 402.797 1158.76 403.85C1158.76 403.8 1158.76 403.7 1158.76 403.65C1157.72 400.289 1160.18 396.879 1162.59 394.922C1165.94 392.264 1170.17 390.81 1174.55 390.81C1176.86 390.81 1179.13 391.211 1181.19 392.013C1187.34 394.371 1192.07 400.189 1193.25 406.759C1193.3 406.91 1193.4 407.06 1193.54 407.11C1193.69 407.161 1193.89 407.161 1193.99 407.06C1195.66 405.957 1197.68 405.355 1199.74 405.355C1201.46 405.355 1203.14 405.756 1204.61 406.559C1207.96 408.314 1210.17 411.926 1210.37 415.737C1210.37 415.888 1210.47 416.038 1210.62 416.139C1210.76 416.239 1210.96 416.239 1211.11 416.139C1211.75 415.838 1212.39 415.687 1213.13 415.687C1215.68 415.687 1218.19 417.694 1218.74 420.151C1219.42 423.361 1217.01 427.023 1213.72 427.775C1213.22 427.875 1212.73 427.925 1212.24 427.925C1209.53 427.925 1206.78 426.27 1205.35 423.813C1206.58 422.759 1207.47 421.255 1207.76 419.65C1207.81 419.399 1207.62 419.098 1207.37 419.048C1207.07 418.998 1206.83 419.198 1206.78 419.449C1206.39 421.656 1204.66 423.562 1202.55 424.214C1200.43 424.866 1197.97 424.164 1196.45 422.559C1196.25 422.358 1195.95 422.358 1195.76 422.559C1195.56 422.759 1195.56 423.06 1195.76 423.261C1197.09 424.665 1199 425.468 1200.92 425.468C1201.56 425.468 1202.2 425.367 1202.84 425.217C1203.29 425.067 1203.78 424.866 1204.17 424.665C1203.48 428.728 1200.58 432.389 1196.84 433.894C1195.46 434.446 1194.04 434.747 1192.51 434.747C1189.61 434.747 1186.7 433.693 1184.59 431.838C1184.49 431.737 1184.39 431.737 1184.24 431.737C1184.19 431.737 1184.19 431.737 1184.14 431.737C1184 431.788 1183.85 431.888 1183.8 431.988C1180.9 438.007 1174.3 441.969 1167.71 441.719C1161.41 441.468 1155.41 437.255 1152.8 431.436C1153.1 431.487 1153.39 431.487 1153.74 431.487C1155.11 431.487 1156.49 431.186 1157.72 430.584C1157.97 430.483 1158.07 430.183 1157.97 429.932C1157.87 429.681 1157.57 429.581 1157.33 429.681C1154.67 430.935 1151.42 430.684 1149.01 429.029C1148.77 428.878 1148.47 428.929 1148.32 429.179C1148.18 429.43 1148.23 429.731 1148.47 429.882C1149.16 430.383 1149.95 430.734 1150.74 431.035C1149.36 431.687 1147.83 432.088 1146.26 432.088C1144.39 432.088 1142.62 431.587 1141.09 430.684C1137.84 428.728 1135.88 424.816 1136.22 420.954C1136.22 420.753 1136.17 420.603 1136.02 420.502C1134.89 419.65 1134.1 418.295 1133.91 416.69C1133.71 415.136 1134.1 413.581 1134.99 412.477C1135.97 411.324 1137.55 410.621 1139.27 410.621ZM1184.98 401.994C1186.7 401.944 1188.38 402.998 1189.11 404.552C1189.26 404.904 1189.41 405.355 1189.26 405.706C1189.21 405.857 1189.07 405.957 1188.92 406.007C1188.82 405.957 1188.67 405.907 1188.52 405.907C1188.28 405.857 1188.08 406.007 1187.98 406.208C1187.88 406.408 1187.98 406.659 1188.13 406.81C1188.33 406.96 1188.52 407.01 1188.72 407.01C1189.31 407.261 1189.8 407.863 1190.05 408.615C1190.34 409.568 1190.15 410.471 1189.56 411.023C1189.36 411.223 1189.36 411.524 1189.56 411.725C1189.66 411.825 1189.8 411.875 1189.9 411.875C1190.05 411.875 1190.15 411.825 1190.25 411.725C1191.08 410.922 1191.33 409.568 1190.98 408.314C1190.79 407.562 1190.34 406.96 1189.85 406.509C1190 406.358 1190.1 406.208 1190.15 406.007C1190.39 405.455 1190.3 404.803 1190 404.051C1189.11 402.095 1187.05 400.841 1184.93 400.891C1184.64 400.891 1184.44 401.142 1184.44 401.393C1184.44 401.794 1184.69 401.994 1184.98 401.994Z" fill="white"/>
<path d="M1136.22 421.004C1136.22 420.803 1136.17 420.653 1136.02 420.552C1134.89 419.7 1134.1 418.345 1133.91 416.74C1133.91 416.69 1133.91 416.69 1133.91 416.64C1135.14 417.543 1136.86 417.844 1138.09 416.991C1138.24 419.85 1139.66 422.759 1142.07 424.113C1144.54 425.518 1148.03 425.016 1149.65 422.659C1152.31 426.471 1157.72 426.722 1162.25 426.07C1165.35 425.618 1169.19 424.013 1168.99 420.803C1171.7 423.612 1175.78 425.016 1179.57 424.414C1183.41 423.813 1186.9 421.305 1188.67 417.794C1193.3 420.602 1199.5 420.552 1204.02 417.593C1204.71 418.646 1205.65 419.549 1206.68 420.201C1206.09 422.107 1204.52 423.662 1202.65 424.264C1200.53 424.916 1198.07 424.214 1196.54 422.609C1196.35 422.408 1196.05 422.408 1195.86 422.609C1195.66 422.809 1195.66 423.11 1195.86 423.311C1197.18 424.715 1199.1 425.518 1201.02 425.518C1201.66 425.518 1202.3 425.418 1202.94 425.267C1203.38 425.117 1203.88 424.916 1204.27 424.715C1203.58 428.778 1200.68 432.439 1196.94 433.944C1195.56 434.496 1194.13 434.797 1192.61 434.797C1189.7 434.797 1186.8 433.743 1184.69 431.888C1184.59 431.787 1184.49 431.787 1184.34 431.787C1184.29 431.787 1184.29 431.787 1184.24 431.787C1184.1 431.838 1183.95 431.938 1183.9 432.038C1181 438.057 1174.4 442.019 1167.81 441.769C1161.51 441.518 1155.51 437.305 1152.9 431.486C1153.2 431.537 1153.49 431.537 1153.83 431.537C1155.21 431.537 1156.59 431.236 1157.82 430.634C1158.07 430.533 1158.16 430.233 1158.07 429.982C1157.97 429.731 1157.67 429.631 1157.43 429.731C1154.77 430.985 1151.52 430.734 1149.11 429.079C1148.87 428.928 1148.57 428.979 1148.42 429.229C1148.27 429.48 1148.32 429.781 1148.57 429.932C1149.26 430.433 1150.05 430.784 1150.83 431.085C1149.46 431.737 1147.93 432.138 1146.36 432.138C1144.49 432.138 1142.71 431.637 1141.19 430.734C1137.84 428.728 1135.88 424.866 1136.22 421.004Z" fill="#EAF7FD"/>
<path d="M1213.77 427.875C1213.27 427.975 1212.78 428.026 1212.29 428.026C1209.58 428.026 1206.83 426.37 1205.4 423.913C1206.38 423.11 1207.12 422.007 1207.52 420.803C1211.01 422.609 1215.54 422.458 1218.78 420.302C1219.42 423.562 1217.01 427.123 1213.77 427.875Z" fill="#EAF7FD"/>
<path d="M1139.27 409.618C1140.35 409.618 1141.39 409.869 1142.27 410.32C1142.03 409.117 1142.12 407.813 1142.62 406.509C1143.4 404.302 1145.13 402.446 1147.24 401.643C1150.29 400.389 1154.18 400.891 1157.67 402.897C1157.28 399.487 1159.69 396.176 1162.1 394.27C1165.6 391.462 1170.07 389.907 1174.7 389.907C1177.16 389.907 1179.47 390.358 1181.69 391.211C1187.93 393.618 1192.81 399.386 1194.23 406.007C1195.95 405.054 1197.87 404.552 1199.94 404.552C1201.81 404.552 1203.68 405.004 1205.25 405.857C1208.7 407.662 1211.06 411.273 1211.45 415.186C1212.04 414.985 1212.63 414.885 1213.27 414.885C1216.33 414.885 1219.23 417.192 1219.82 420.101C1220.61 423.913 1217.95 428.026 1214.06 428.929C1213.52 429.079 1212.93 429.129 1212.34 429.129C1209.63 429.129 1206.88 427.675 1205.2 425.418C1204.32 429.681 1201.27 433.443 1197.33 435.048C1195.86 435.65 1194.28 435.951 1192.61 435.951C1189.71 435.951 1186.8 434.947 1184.54 433.192C1181.44 439.01 1175.04 442.922 1168.5 442.922C1168.25 442.922 1168.01 442.922 1167.81 442.922C1161.07 442.621 1154.62 438.057 1151.92 431.788C1150.24 432.741 1148.37 433.242 1146.36 433.242C1144.29 433.242 1142.32 432.69 1140.65 431.687C1137.15 429.581 1135.04 425.418 1135.29 421.305C1134.06 420.302 1133.22 418.747 1133.02 416.991C1132.78 415.136 1133.27 413.33 1134.3 412.026C1135.38 410.471 1137.25 409.618 1139.27 409.618ZM1133.91 416.791C1134.1 418.346 1134.89 419.75 1136.02 420.603C1136.17 420.703 1136.22 420.853 1136.22 421.054C1135.88 424.916 1137.84 428.778 1141.09 430.784C1142.62 431.737 1144.39 432.189 1146.26 432.189C1147.83 432.189 1149.41 431.838 1150.74 431.135C1149.95 430.885 1149.16 430.483 1148.47 429.982C1148.23 429.831 1148.18 429.531 1148.32 429.28C1148.47 429.029 1148.77 428.979 1149.01 429.129C1151.42 430.784 1154.72 431.035 1157.33 429.781C1157.57 429.681 1157.87 429.781 1157.97 430.032C1158.07 430.283 1157.97 430.584 1157.72 430.684C1156.49 431.286 1155.11 431.587 1153.74 431.587C1153.44 431.587 1153.15 431.587 1152.8 431.537C1155.41 437.355 1161.41 441.518 1167.71 441.819C1174.35 442.12 1180.9 438.107 1183.8 432.088C1183.85 431.938 1184 431.838 1184.15 431.838C1184.19 431.838 1184.19 431.838 1184.24 431.838C1184.34 431.838 1184.49 431.888 1184.59 431.938C1186.7 433.794 1189.56 434.847 1192.51 434.847C1194.04 434.847 1195.51 434.546 1196.84 433.994C1200.63 432.44 1203.48 428.828 1204.17 424.766C1203.73 425.016 1203.29 425.217 1202.84 425.317C1202.2 425.518 1201.56 425.568 1200.92 425.568C1199.01 425.568 1197.09 424.766 1195.76 423.361C1195.56 423.161 1195.56 422.86 1195.76 422.659C1195.95 422.458 1196.25 422.458 1196.45 422.659C1197.97 424.314 1200.43 424.966 1202.55 424.314C1204.66 423.662 1206.39 421.756 1206.78 419.549C1206.83 419.299 1207.07 419.098 1207.37 419.148C1207.62 419.198 1207.81 419.449 1207.76 419.75C1207.47 421.355 1206.58 422.86 1205.35 423.913C1206.78 426.371 1209.49 428.026 1212.24 428.026C1212.73 428.026 1213.23 427.976 1213.72 427.875C1217.01 427.123 1219.42 423.462 1218.74 420.252C1218.19 417.794 1215.69 415.788 1213.13 415.788C1212.39 415.788 1211.7 415.938 1211.11 416.239C1210.96 416.339 1210.76 416.289 1210.62 416.239C1210.47 416.139 1210.37 415.988 1210.37 415.838C1210.22 412.026 1207.96 408.415 1204.61 406.659C1203.14 405.907 1201.47 405.455 1199.74 405.455C1197.68 405.455 1195.61 406.057 1193.99 407.161C1193.84 407.261 1193.69 407.261 1193.54 407.211C1193.4 407.161 1193.3 407.01 1193.25 406.86C1192.07 400.289 1187.34 394.471 1181.19 392.114C1179.13 391.311 1176.86 390.91 1174.55 390.91C1170.17 390.91 1165.89 392.364 1162.59 395.023C1160.18 396.979 1157.72 400.389 1158.76 403.75C1158.76 403.8 1158.76 403.9 1158.76 403.951C1161.07 402.897 1163.82 402.697 1166.23 403.65C1166.48 403.75 1166.63 404.051 1166.53 404.302C1166.43 404.552 1166.14 404.703 1165.89 404.603C1162.2 403.148 1157.53 404.753 1155.41 408.164C1154.87 409.067 1154.47 410.07 1154.08 411.073C1153.98 411.324 1153.74 411.424 1153.49 411.374C1151.92 410.872 1150 411.775 1149.26 413.33C1148.52 414.885 1148.96 416.891 1150.29 418.045C1150.49 418.245 1150.54 418.546 1150.34 418.747C1150.24 418.847 1150.1 418.947 1149.95 418.947C1149.85 418.947 1149.7 418.897 1149.65 418.847C1148.03 417.443 1147.44 414.885 1148.37 412.929C1149.26 411.073 1151.38 409.969 1153.34 410.371C1153.69 409.468 1154.08 408.565 1154.62 407.712C1155.46 406.308 1156.69 405.205 1158.07 404.452C1154.62 402.145 1150.64 401.443 1147.59 402.647C1145.81 403.349 1144.24 405.004 1143.55 406.96C1142.96 408.565 1143.01 410.17 1143.7 411.474C1143.8 411.675 1143.75 411.976 1143.55 412.126C1143.35 412.277 1143.11 412.277 1142.91 412.076C1141.98 411.223 1140.7 410.722 1139.27 410.722C1137.55 410.722 1135.97 411.424 1134.99 412.678C1134.1 413.681 1133.71 415.186 1133.91 416.791Z" fill="#C1E3F8"/>
<path d="M1184.93 400.991C1187.05 400.891 1189.12 402.195 1190 404.151C1190.35 404.904 1190.39 405.556 1190.15 406.107C1190.1 406.308 1189.95 406.458 1189.85 406.609C1190.35 407.06 1190.79 407.662 1190.98 408.415C1191.38 409.719 1191.08 411.023 1190.25 411.825C1190.15 411.926 1190.05 411.976 1189.9 411.976C1189.75 411.976 1189.66 411.926 1189.56 411.825C1189.36 411.625 1189.36 411.324 1189.56 411.123C1190.1 410.571 1190.3 409.618 1190.05 408.716C1189.8 407.963 1189.36 407.361 1188.72 407.11C1188.52 407.11 1188.33 407.01 1188.13 406.91C1187.93 406.759 1187.89 406.509 1187.98 406.308C1188.08 406.107 1188.28 405.957 1188.52 406.007C1188.67 406.057 1188.77 406.057 1188.92 406.107C1189.07 406.057 1189.21 405.957 1189.26 405.806C1189.41 405.455 1189.26 405.004 1189.12 404.653C1188.38 403.048 1186.7 401.995 1184.98 402.095C1184.69 402.095 1184.49 401.894 1184.49 401.593C1184.44 401.242 1184.64 400.991 1184.93 400.991Z" fill="#C1E3F8"/>
</g>
<g clip-path="url(#clip4_3_664)">
<path d="M1405.32 143.231C1408.79 143.231 1411.89 144.35 1414.16 146.253C1414.64 146.589 1415.24 146.701 1415.71 146.365C1416.19 146.029 1416.31 145.469 1416.07 144.91C1414.4 141.999 1414.28 138.305 1415.71 134.835C1417.39 130.582 1421.21 126.888 1425.51 125.208C1432.91 122.41 1442.59 123.977 1450.95 129.238C1447.61 131.029 1444.62 133.492 1442.59 136.514C1441.27 138.417 1440.44 140.432 1439.48 142.447C1434.82 141.664 1429.57 144.014 1427.42 148.156C1425.27 152.522 1426.58 158.119 1430.52 161.365C1430.76 161.589 1431 161.589 1431.24 161.589C1431.6 161.589 1431.96 161.477 1432.2 161.141C1432.67 160.693 1432.56 159.91 1432.08 159.574C1428.85 156.999 1427.78 152.522 1429.57 149.052C1431.36 145.581 1436.02 143.567 1439.84 144.686C1440.44 144.91 1441.04 144.574 1441.27 144.014C1442.23 141.776 1443.19 139.537 1444.5 137.522C1449.64 129.91 1460.98 126.328 1469.94 129.574C1470.54 129.798 1471.26 129.462 1471.49 128.902C1471.73 128.343 1471.38 127.671 1470.78 127.447C1464.93 125.32 1458.24 125.768 1452.62 128.119C1452.62 128.007 1452.62 127.783 1452.62 127.671C1450.11 120.171 1456.09 112.559 1461.94 108.194C1470.06 102.261 1480.33 99.0146 1490.96 99.0146C1496.58 99.0146 1502.07 99.9102 1507.09 101.701C1522.02 106.962 1533.49 119.947 1536.35 134.611C1536.47 134.947 1536.71 135.283 1537.07 135.395C1537.43 135.507 1537.91 135.507 1538.15 135.283C1542.21 132.82 1547.1 131.477 1552.12 131.477C1556.3 131.477 1560.36 132.373 1563.95 134.164C1572.07 138.081 1577.44 146.141 1577.92 154.649C1577.92 154.984 1578.16 155.32 1578.52 155.544C1578.88 155.768 1579.35 155.768 1579.71 155.544C1581.27 154.872 1582.82 154.537 1584.61 154.537C1590.82 154.537 1596.91 159.014 1598.23 164.499C1599.9 171.663 1594.05 179.835 1586.04 181.514C1584.85 181.738 1583.65 181.85 1582.46 181.85C1575.89 181.85 1569.2 178.156 1565.74 172.671C1568.72 170.32 1570.87 166.962 1571.59 163.38C1571.71 162.82 1571.23 162.148 1570.64 162.037C1569.92 161.925 1569.32 162.372 1569.2 162.932C1568.25 167.857 1564.07 172.111 1558.93 173.566C1553.79 175.021 1547.82 173.454 1544.12 169.872C1543.64 169.425 1542.92 169.425 1542.45 169.872C1541.97 170.32 1541.97 170.992 1542.45 171.439C1545.67 174.574 1550.33 176.365 1554.99 176.365C1556.54 176.365 1558.09 176.141 1559.65 175.805C1560.72 175.469 1561.92 175.021 1562.87 174.574C1561.2 183.641 1554.15 191.812 1545.07 195.171C1541.73 196.402 1538.27 197.074 1534.56 197.074C1527.52 197.074 1520.47 194.723 1515.33 190.581C1515.09 190.357 1514.85 190.357 1514.5 190.357C1514.38 190.357 1514.38 190.357 1514.26 190.357C1513.9 190.469 1513.54 190.693 1513.42 190.917C1506.37 204.35 1490.37 213.193 1474.36 212.633C1459.07 212.073 1444.5 202.671 1438.17 189.686C1438.89 189.797 1439.6 189.797 1440.44 189.797C1443.78 189.797 1447.13 189.126 1450.11 187.783C1450.71 187.559 1450.95 186.887 1450.71 186.327C1450.47 185.768 1449.76 185.544 1449.16 185.768C1442.71 188.566 1434.82 188.006 1428.97 184.312C1428.37 183.977 1427.66 184.089 1427.3 184.648C1426.94 185.208 1427.06 185.88 1427.66 186.215C1429.33 187.335 1431.24 188.118 1433.15 188.79C1429.81 190.245 1426.11 191.141 1422.28 191.141C1417.74 191.141 1413.44 190.021 1409.74 188.006C1401.86 183.641 1397.08 174.91 1397.92 166.29C1397.92 165.842 1397.8 165.507 1397.44 165.283C1394.69 163.38 1392.78 160.357 1392.3 156.775C1391.82 153.305 1392.78 149.835 1394.93 147.372C1397.32 144.798 1401.14 143.231 1405.32 143.231ZM1516.29 123.977C1520.47 123.865 1524.53 126.216 1526.32 129.686C1526.68 130.47 1527.04 131.477 1526.68 132.261C1526.56 132.596 1526.2 132.82 1525.84 132.932C1525.6 132.82 1525.25 132.708 1524.89 132.708C1524.29 132.596 1523.81 132.932 1523.57 133.38C1523.33 133.828 1523.57 134.387 1523.93 134.723C1524.41 135.059 1524.89 135.171 1525.36 135.171C1526.8 135.731 1527.99 137.074 1528.59 138.753C1529.31 140.88 1528.83 142.895 1527.4 144.126C1526.92 144.574 1526.92 145.246 1527.4 145.693C1527.63 145.917 1527.99 146.029 1528.23 146.029C1528.59 146.029 1528.83 145.917 1529.07 145.693C1531.1 143.902 1531.7 140.88 1530.86 138.081C1530.38 136.402 1529.31 135.059 1528.11 134.052C1528.47 133.716 1528.71 133.38 1528.83 132.932C1529.43 131.701 1529.19 130.246 1528.47 128.567C1526.32 124.201 1521.3 121.402 1516.17 121.514C1515.45 121.514 1514.97 122.074 1514.97 122.634C1514.97 123.529 1515.57 123.977 1516.29 123.977Z" fill="white"/>
<path d="M1397.91 166.402C1397.91 165.954 1397.79 165.618 1397.44 165.395C1394.69 163.492 1392.78 160.469 1392.3 156.887C1392.3 156.775 1392.3 156.775 1392.3 156.663C1395.29 158.678 1399.47 159.35 1402.45 157.447C1402.81 163.827 1406.28 170.32 1412.13 173.342C1418.1 176.477 1426.58 175.357 1430.52 170.096C1436.97 178.603 1450.11 179.163 1461.1 177.708C1468.63 176.7 1477.94 173.118 1477.47 165.954C1484.03 172.223 1493.95 175.357 1503.15 174.014C1512.46 172.671 1520.94 167.074 1525.24 159.238C1536.47 165.507 1551.52 165.395 1562.51 158.79C1564.18 161.141 1566.45 163.156 1568.96 164.611C1567.53 168.865 1563.71 172.335 1559.17 173.678C1554.03 175.133 1548.06 173.566 1544.36 169.984C1543.88 169.536 1543.16 169.536 1542.68 169.984C1542.2 170.432 1542.2 171.103 1542.68 171.551C1545.91 174.686 1550.57 176.477 1555.22 176.477C1556.78 176.477 1558.33 176.253 1559.88 175.917C1560.96 175.581 1562.15 175.133 1563.11 174.686C1561.44 183.753 1554.39 191.924 1545.31 195.282C1541.97 196.514 1538.5 197.185 1534.8 197.185C1527.75 197.185 1520.7 194.835 1515.57 190.693C1515.33 190.469 1515.09 190.469 1514.73 190.469C1514.61 190.469 1514.61 190.469 1514.49 190.469C1514.14 190.581 1513.78 190.805 1513.66 191.029C1506.61 204.461 1490.6 213.305 1474.6 212.745C1459.31 212.185 1444.74 202.782 1438.41 189.797C1439.12 189.909 1439.84 189.909 1440.68 189.909C1444.02 189.909 1447.36 189.238 1450.35 187.894C1450.95 187.671 1451.19 186.999 1450.95 186.439C1450.71 185.879 1449.99 185.656 1449.4 185.879C1442.95 188.678 1435.06 188.118 1429.21 184.424C1428.61 184.088 1427.9 184.2 1427.54 184.76C1427.18 185.32 1427.3 185.991 1427.9 186.327C1429.57 187.447 1431.48 188.23 1433.39 188.902C1430.05 190.357 1426.34 191.253 1422.52 191.253C1417.98 191.253 1413.68 190.133 1409.98 188.118C1401.86 183.641 1397.08 175.021 1397.91 166.402Z" fill="#EAF7FD"/>
<path d="M1586.16 181.737C1584.97 181.961 1583.77 182.073 1582.58 182.073C1576.01 182.073 1569.32 178.379 1565.86 172.894C1568.24 171.103 1570.04 168.64 1570.99 165.954C1579.47 169.984 1590.46 169.648 1598.35 164.834C1599.9 172.111 1594.05 180.058 1586.16 181.737Z" fill="#EAF7FD"/>
<path d="M1405.32 140.992C1407.95 140.992 1410.46 141.552 1412.61 142.559C1412.01 139.873 1412.25 136.962 1413.44 134.052C1415.36 129.127 1419.54 124.985 1424.67 123.194C1432.08 120.395 1441.51 121.515 1449.99 125.992C1449.04 118.38 1454.89 110.992 1460.74 106.739C1469.23 100.47 1480.1 97 1491.32 97C1497.3 97 1502.91 98.0075 1508.28 99.9104C1523.45 105.284 1535.28 118.157 1538.74 132.933C1542.92 130.806 1547.58 129.686 1552.6 129.686C1557.14 129.686 1561.68 130.694 1565.5 132.597C1573.86 136.627 1579.59 144.686 1580.55 153.417C1581.98 152.97 1583.42 152.746 1584.97 152.746C1592.37 152.746 1599.42 157.895 1600.86 164.387C1602.77 172.895 1596.32 182.074 1586.88 184.089C1585.57 184.425 1584.13 184.537 1582.7 184.537C1576.13 184.537 1569.44 181.29 1565.38 176.253C1563.23 185.768 1555.82 194.163 1546.27 197.745C1542.68 199.089 1538.86 199.76 1534.8 199.76C1527.75 199.76 1520.71 197.522 1515.21 193.604C1507.69 206.589 1492.16 215.32 1476.27 215.32C1475.68 215.32 1475.08 215.32 1474.6 215.32C1458.24 214.648 1442.59 204.462 1436.02 190.469C1431.96 192.596 1427.42 193.716 1422.52 193.716C1417.51 193.716 1412.73 192.484 1408.67 190.246C1400.19 185.544 1395.05 176.253 1395.65 167.074C1392.66 164.835 1390.63 161.365 1390.15 157.447C1389.56 153.306 1390.75 149.276 1393.26 146.365C1395.89 142.895 1400.42 140.992 1405.32 140.992ZM1392.3 157C1392.78 160.47 1394.69 163.604 1397.44 165.507C1397.8 165.731 1397.92 166.067 1397.92 166.514C1397.08 175.134 1401.86 183.753 1409.74 188.231C1413.44 190.357 1417.74 191.365 1422.28 191.365C1426.11 191.365 1429.93 190.581 1433.15 189.014C1431.24 188.454 1429.33 187.559 1427.66 186.44C1427.06 186.104 1426.94 185.432 1427.3 184.872C1427.66 184.313 1428.38 184.201 1428.97 184.537C1434.83 188.231 1442.83 188.79 1449.16 185.992C1449.76 185.768 1450.47 185.992 1450.71 186.552C1450.95 187.111 1450.71 187.783 1450.11 188.007C1447.13 189.35 1443.78 190.022 1440.44 190.022C1439.72 190.022 1439.01 190.022 1438.17 189.91C1444.5 202.895 1459.07 212.186 1474.36 212.857C1490.49 213.529 1506.37 204.574 1513.42 191.141C1513.54 190.805 1513.9 190.581 1514.26 190.581C1514.38 190.581 1514.38 190.581 1514.5 190.581C1514.73 190.581 1515.09 190.693 1515.33 190.805C1520.47 194.947 1527.4 197.298 1534.56 197.298C1538.27 197.298 1541.85 196.626 1545.07 195.395C1554.27 191.925 1561.2 183.865 1562.87 174.798C1561.8 175.358 1560.72 175.805 1559.65 176.029C1558.09 176.477 1556.54 176.589 1554.99 176.589C1550.33 176.589 1545.67 174.798 1542.45 171.664C1541.97 171.216 1541.97 170.544 1542.45 170.096C1542.92 169.649 1543.64 169.649 1544.12 170.096C1547.82 173.79 1553.79 175.246 1558.93 173.79C1564.07 172.335 1568.25 168.082 1569.2 163.156C1569.32 162.596 1569.92 162.149 1570.64 162.261C1571.23 162.373 1571.71 162.932 1571.59 163.604C1570.87 167.186 1568.72 170.544 1565.74 172.895C1569.2 178.38 1575.77 182.074 1582.46 182.074C1583.66 182.074 1584.85 181.962 1586.04 181.738C1594.05 180.059 1599.9 171.887 1598.23 164.723C1596.91 159.238 1590.82 154.761 1584.61 154.761C1582.82 154.761 1581.15 155.097 1579.71 155.768C1579.35 155.992 1578.88 155.88 1578.52 155.768C1578.16 155.544 1577.92 155.208 1577.92 154.873C1577.56 146.365 1572.07 138.306 1563.95 134.388C1560.36 132.709 1556.3 131.701 1552.12 131.701C1547.1 131.701 1542.09 133.044 1538.15 135.507C1537.79 135.731 1537.43 135.731 1537.07 135.619C1536.71 135.507 1536.47 135.171 1536.35 134.836C1533.49 120.171 1522.02 107.186 1507.09 101.925C1502.07 100.134 1496.58 99.2388 1490.96 99.2388C1480.33 99.2388 1469.94 102.485 1461.94 108.418C1456.09 112.783 1450.11 120.395 1452.62 127.895C1452.62 128.007 1452.62 128.231 1452.62 128.343C1458.24 125.992 1464.93 125.545 1470.78 127.671C1471.38 127.895 1471.73 128.567 1471.5 129.127C1471.26 129.686 1470.54 130.022 1469.94 129.798C1460.98 126.552 1449.64 130.134 1444.5 137.746C1443.19 139.761 1442.23 142 1441.28 144.238C1441.04 144.798 1440.44 145.022 1439.84 144.91C1436.02 143.791 1431.36 145.806 1429.57 149.276C1427.78 152.746 1428.85 157.223 1432.08 159.798C1432.56 160.246 1432.68 160.917 1432.2 161.365C1431.96 161.589 1431.6 161.813 1431.24 161.813C1431 161.813 1430.64 161.701 1430.53 161.589C1426.58 158.455 1425.15 152.746 1427.42 148.38C1429.57 144.238 1434.71 141.776 1439.48 142.671C1440.32 140.656 1441.28 138.641 1442.59 136.739C1444.62 133.604 1447.61 131.142 1450.95 129.462C1442.59 124.313 1432.91 122.746 1425.51 125.433C1421.21 127 1417.39 130.694 1415.71 135.059C1414.28 138.641 1414.4 142.224 1416.07 145.134C1416.31 145.582 1416.19 146.253 1415.71 146.589C1415.24 146.925 1414.64 146.925 1414.16 146.477C1411.89 144.574 1408.79 143.455 1405.32 143.455C1401.14 143.455 1397.32 145.022 1394.93 147.82C1392.78 150.059 1391.82 153.417 1392.3 157Z" fill="#C1E3F8"/>
<path d="M1516.17 121.739C1521.3 121.515 1526.32 124.425 1528.47 128.791C1529.3 130.47 1529.42 131.925 1528.83 133.156C1528.71 133.604 1528.35 133.94 1528.11 134.276C1529.3 135.283 1530.38 136.627 1530.86 138.306C1531.81 141.216 1531.1 144.126 1529.07 145.918C1528.83 146.141 1528.59 146.253 1528.23 146.253C1527.87 146.253 1527.63 146.141 1527.39 145.918C1526.92 145.47 1526.92 144.798 1527.39 144.35C1528.71 143.119 1529.18 140.992 1528.59 138.977C1527.99 137.298 1526.92 135.955 1525.36 135.395C1524.88 135.395 1524.41 135.171 1523.93 134.947C1523.45 134.612 1523.33 134.052 1523.57 133.604C1523.81 133.156 1524.29 132.821 1524.88 132.933C1525.24 133.045 1525.48 133.045 1525.84 133.156C1526.2 133.045 1526.56 132.821 1526.68 132.485C1527.03 131.701 1526.68 130.694 1526.32 129.91C1524.53 126.328 1520.47 123.977 1516.28 124.201C1515.57 124.201 1515.09 123.754 1515.09 123.082C1514.97 122.298 1515.45 121.739 1516.17 121.739Z" fill="#C1E3F8"/>
<ellipse cx="1489.4" cy="130.305" rx="2.61867" ry="3.9863" fill="#C1E3F8"/>
<ellipse cx="1445.26" cy="154.044" rx="3.69356" ry="2.61951" fill="#C1E3F8"/>
<ellipse cx="1435.44" cy="154.044" rx="3.65576" ry="2.61951" fill="#C1E3F8"/>
</g>
<g clip-path="url(#clip5_3_664)">
<path d="M467.908 408.402C465.858 408.402 464.02 408.923 462.677 409.808C462.394 409.964 462.041 410.016 461.758 409.86C461.475 409.703 461.404 409.443 461.546 409.183C462.536 407.83 462.606 406.112 461.758 404.499C460.768 402.521 458.506 400.803 455.961 400.022C451.578 398.721 445.851 399.45 440.902 401.896C442.882 402.729 444.649 403.874 445.851 405.279C446.629 406.164 447.124 407.101 447.689 408.038C450.446 407.674 453.557 408.767 454.83 410.692C456.102 412.722 455.325 415.325 452.992 416.834C452.85 416.938 452.709 416.938 452.567 416.938C452.355 416.938 452.143 416.886 452.002 416.73C451.719 416.522 451.79 416.158 452.072 416.001C453.981 414.804 454.618 412.722 453.557 411.109C452.497 409.495 449.74 408.558 447.477 409.079C447.124 409.183 446.77 409.027 446.629 408.767C446.063 407.726 445.498 406.685 444.72 405.748C441.68 402.208 434.964 400.543 429.662 402.052C429.308 402.156 428.884 402 428.743 401.74C428.601 401.48 428.813 401.167 429.167 401.063C432.631 400.074 436.59 400.283 439.913 401.376C439.913 401.324 439.913 401.219 439.913 401.167C441.397 397.68 437.863 394.141 434.398 392.111C429.591 389.352 423.511 387.843 417.219 387.843C413.897 387.843 410.645 388.259 407.675 389.092C398.838 391.538 392.051 397.576 390.355 404.394C390.284 404.551 390.143 404.707 389.931 404.759C389.718 404.811 389.436 404.811 389.294 404.707C386.891 403.562 383.992 402.937 381.023 402.937C378.548 402.937 376.145 403.353 374.024 404.186C369.217 406.008 366.035 409.756 365.752 413.711C365.752 413.867 365.611 414.024 365.399 414.128C365.187 414.232 364.904 414.232 364.692 414.128C363.773 413.815 362.854 413.659 361.793 413.659C358.117 413.659 354.512 415.741 353.734 418.292C352.744 421.623 356.208 425.422 360.945 426.203C361.652 426.307 362.359 426.359 363.066 426.359C366.954 426.359 370.913 424.642 372.963 422.091C371.196 420.998 369.924 419.437 369.499 417.771C369.429 417.511 369.711 417.199 370.065 417.147C370.489 417.094 370.843 417.303 370.913 417.563C371.479 419.853 373.953 421.831 376.993 422.508C380.033 423.184 383.568 422.456 385.759 420.79C386.042 420.582 386.466 420.582 386.749 420.79C387.032 420.998 387.032 421.311 386.749 421.519C384.84 422.976 382.083 423.809 379.326 423.809C378.407 423.809 377.488 423.705 376.569 423.549C375.933 423.392 375.226 423.184 374.66 422.976C375.65 427.192 379.821 430.992 385.194 432.553C387.173 433.126 389.224 433.438 391.415 433.438C395.586 433.438 399.757 432.345 402.797 430.419C402.939 430.315 403.08 430.315 403.292 430.315C403.363 430.315 403.363 430.315 403.434 430.315C403.646 430.367 403.858 430.471 403.928 430.575C408.099 436.821 417.573 440.933 427.046 440.673C436.095 440.413 444.72 436.04 448.467 430.003C448.043 430.055 447.619 430.055 447.124 430.055C445.144 430.055 443.165 429.742 441.397 429.118C441.044 429.014 440.903 428.702 441.044 428.441C441.185 428.181 441.609 428.077 441.963 428.181C445.781 429.482 450.446 429.222 453.911 427.504C454.264 427.348 454.688 427.4 454.9 427.661C455.112 427.921 455.042 428.233 454.688 428.389C453.698 428.91 452.567 429.274 451.436 429.586C453.416 430.263 455.607 430.679 457.87 430.679C460.556 430.679 463.101 430.159 465.293 429.222C469.959 427.192 472.786 423.132 472.292 419.124C472.292 418.916 472.362 418.76 472.574 418.656C474.2 417.771 475.332 416.366 475.614 414.7C475.897 413.087 475.332 411.473 474.059 410.328C472.645 409.131 470.383 408.402 467.908 408.402ZM402.232 399.45C399.757 399.398 397.354 400.491 396.293 402.104C396.081 402.469 395.869 402.937 396.081 403.301C396.152 403.458 396.364 403.562 396.576 403.614C396.717 403.562 396.93 403.51 397.142 403.51C397.495 403.458 397.778 403.614 397.919 403.822C398.061 404.03 397.919 404.29 397.707 404.446C397.424 404.603 397.142 404.655 396.859 404.655C396.01 404.915 395.303 405.54 394.95 406.32C394.526 407.309 394.809 408.246 395.657 408.819C395.94 409.027 395.94 409.339 395.657 409.547C395.516 409.651 395.303 409.703 395.162 409.703C394.95 409.703 394.809 409.651 394.667 409.547C393.465 408.715 393.112 407.309 393.607 406.008C393.89 405.227 394.526 404.603 395.233 404.134C395.021 403.978 394.879 403.822 394.809 403.614C394.455 403.041 394.597 402.365 395.021 401.584C396.293 399.554 399.262 398.253 402.302 398.305C402.727 398.305 403.009 398.565 403.009 398.825C403.009 399.242 402.656 399.45 402.232 399.45Z" fill="white"/>
<path d="M472.294 419.177C472.294 418.969 472.364 418.812 472.576 418.708C474.202 417.823 475.334 416.418 475.616 414.753C475.616 414.7 475.616 414.7 475.616 414.648C473.849 415.585 471.375 415.898 469.607 415.013C469.395 417.98 467.345 420.998 463.881 422.404C460.346 423.861 455.327 423.341 452.994 420.894C449.176 424.85 441.399 425.11 434.895 424.434C430.442 423.965 424.927 422.3 425.21 418.968C421.322 421.883 415.454 423.341 410.01 422.716C404.496 422.091 399.477 419.489 396.932 415.846C390.286 418.76 381.378 418.708 374.874 415.637C373.885 416.73 372.541 417.667 371.057 418.344C371.905 420.322 374.167 421.935 376.854 422.56C379.894 423.237 383.429 422.508 385.62 420.842C385.903 420.634 386.327 420.634 386.61 420.842C386.893 421.05 386.893 421.363 386.61 421.571C384.701 423.028 381.944 423.861 379.187 423.861C378.268 423.861 377.349 423.757 376.43 423.601C375.793 423.445 375.086 423.237 374.521 423.028C375.511 427.244 379.682 431.044 385.055 432.605C387.034 433.178 389.084 433.49 391.276 433.49C395.447 433.49 399.618 432.397 402.658 430.471C402.799 430.367 402.941 430.367 403.153 430.367C403.224 430.367 403.223 430.367 403.294 430.367C403.506 430.419 403.718 430.523 403.789 430.628C407.96 436.873 417.433 440.985 426.907 440.725C435.956 440.465 444.581 436.093 448.328 430.055C447.903 430.107 447.479 430.107 446.984 430.107C445.005 430.107 443.025 429.795 441.258 429.17C440.905 429.066 440.763 428.754 440.905 428.494C441.046 428.233 441.47 428.129 441.824 428.233C445.641 429.535 450.307 429.274 453.771 427.557C454.125 427.4 454.549 427.453 454.761 427.713C454.973 427.973 454.902 428.285 454.549 428.441C453.559 428.962 452.428 429.326 451.297 429.639C453.276 430.315 455.468 430.732 457.73 430.732C460.417 430.732 462.962 430.211 465.153 429.274C469.961 427.192 472.789 423.185 472.294 419.177Z" fill="#EAF7FD"/>
<path d="M360.876 426.306C361.583 426.41 362.29 426.463 362.997 426.463C366.885 426.463 370.844 424.745 372.894 422.195C371.481 421.362 370.42 420.217 369.855 418.967C364.835 420.841 358.331 420.685 353.665 418.447C352.746 421.83 356.21 425.526 360.876 426.306Z" fill="#EAF7FD"/>
<path d="M467.909 407.361C466.354 407.361 464.869 407.621 463.597 408.09C463.95 406.841 463.809 405.487 463.102 404.134C461.971 401.844 459.496 399.918 456.456 399.085C452.073 397.784 446.488 398.305 441.469 400.387C442.034 396.847 438.57 393.412 435.106 391.434C430.087 388.519 423.653 386.906 417.008 386.906C413.473 386.906 410.15 387.374 406.969 388.259C397.991 390.757 390.992 396.743 388.941 403.614C386.467 402.625 383.71 402.104 380.741 402.104C378.054 402.104 375.368 402.573 373.105 403.457C368.157 405.331 364.763 409.079 364.198 413.139C363.349 412.93 362.501 412.826 361.582 412.826C357.199 412.826 353.028 415.221 352.179 418.239C351.048 422.195 354.866 426.463 360.451 427.4C361.229 427.556 362.077 427.608 362.925 427.608C366.814 427.608 370.773 426.099 373.176 423.757C374.449 428.181 378.832 432.085 384.488 433.75C386.608 434.375 388.871 434.687 391.274 434.687C395.445 434.687 399.617 433.646 402.869 431.824C407.322 437.862 416.513 441.922 425.915 441.922C426.269 441.922 426.622 441.922 426.905 441.922C436.591 441.61 445.852 436.873 449.74 430.367C452.144 431.356 454.83 431.876 457.729 431.876C460.698 431.876 463.526 431.304 465.93 430.263C470.949 428.077 473.989 423.757 473.635 419.489C475.403 418.448 476.605 416.834 476.887 415.012C477.241 413.087 476.534 411.213 475.049 409.86C473.494 408.246 470.808 407.361 467.909 407.361ZM475.615 414.804C475.332 416.418 474.201 417.875 472.575 418.76C472.363 418.864 472.292 419.02 472.292 419.228C472.787 423.236 469.959 427.244 465.293 429.326C463.102 430.315 460.557 430.783 457.87 430.783C455.608 430.783 453.346 430.419 451.437 429.69C452.568 429.43 453.699 429.014 454.689 428.493C455.042 428.337 455.113 428.025 454.901 427.765C454.689 427.504 454.265 427.452 453.911 427.608C450.447 429.326 445.71 429.586 441.964 428.285C441.61 428.181 441.186 428.285 441.044 428.545C440.903 428.806 441.044 429.118 441.398 429.222C443.165 429.846 445.145 430.159 447.124 430.159C447.549 430.159 447.973 430.159 448.468 430.107C444.721 436.144 436.096 440.465 427.047 440.777C417.503 441.089 408.1 436.925 403.929 430.679C403.858 430.523 403.646 430.419 403.434 430.419C403.363 430.419 403.363 430.419 403.293 430.419C403.151 430.419 402.939 430.471 402.798 430.523C399.758 432.449 395.658 433.542 391.416 433.542C389.224 433.542 387.103 433.23 385.195 432.657C379.751 431.044 375.651 427.296 374.661 423.08C375.297 423.34 375.933 423.549 376.57 423.653C377.489 423.861 378.408 423.913 379.327 423.913C382.084 423.913 384.841 423.08 386.75 421.623C387.033 421.414 387.033 421.102 386.75 420.894C386.467 420.686 386.043 420.686 385.76 420.894C383.569 422.612 380.034 423.288 376.994 422.612C373.954 421.935 371.479 419.957 370.914 417.667C370.843 417.407 370.49 417.198 370.066 417.251C369.712 417.303 369.429 417.563 369.5 417.875C369.924 419.541 371.197 421.102 372.964 422.195C370.914 424.746 367.026 426.463 363.067 426.463C362.36 426.463 361.653 426.411 360.946 426.307C356.209 425.526 352.745 421.727 353.735 418.396C354.512 415.845 358.118 413.763 361.794 413.763C362.855 413.763 363.844 413.919 364.693 414.232C364.905 414.336 365.188 414.284 365.4 414.232C365.612 414.128 365.753 413.971 365.753 413.815C365.965 409.86 369.217 406.112 374.025 404.29C376.145 403.51 378.549 403.041 381.023 403.041C383.993 403.041 386.962 403.666 389.295 404.811C389.507 404.915 389.719 404.915 389.931 404.863C390.143 404.811 390.285 404.655 390.355 404.498C392.052 397.68 398.839 391.642 407.676 389.196C410.645 388.363 413.897 387.947 417.22 387.947C423.512 387.947 429.662 389.456 434.399 392.215C437.863 394.245 441.398 397.784 439.913 401.271C439.913 401.323 439.913 401.428 439.913 401.48C436.591 400.387 432.632 400.178 429.168 401.167C428.814 401.271 428.602 401.584 428.743 401.844C428.885 402.104 429.309 402.26 429.662 402.156C434.965 400.647 441.681 402.312 444.721 405.852C445.498 406.789 446.064 407.83 446.63 408.871C446.771 409.131 447.124 409.235 447.478 409.183C449.74 408.662 452.497 409.599 453.558 411.213C454.618 412.826 453.982 414.908 452.073 416.105C451.79 416.314 451.72 416.626 452.002 416.834C452.144 416.938 452.356 417.042 452.568 417.042C452.709 417.042 452.921 416.99 452.992 416.938C455.325 415.481 456.173 412.826 454.83 410.796C453.558 408.871 450.518 407.726 447.69 408.142C447.195 407.205 446.629 406.268 445.852 405.383C444.65 403.926 442.883 402.781 440.903 402C445.852 399.606 451.578 398.877 455.961 400.126C458.506 400.855 460.769 402.573 461.758 404.603C462.607 406.268 462.536 407.934 461.546 409.287C461.405 409.495 461.476 409.807 461.758 409.964C462.041 410.12 462.395 410.12 462.677 409.912C464.021 409.027 465.859 408.506 467.909 408.506C470.383 408.506 472.646 409.235 474.06 410.536C475.332 411.577 475.898 413.139 475.615 414.804Z" fill="#C1E3F8"/>
<path d="M402.304 398.409C399.264 398.304 396.295 399.658 395.022 401.688C394.527 402.468 394.456 403.145 394.81 403.718C394.881 403.926 395.093 404.082 395.234 404.238C394.527 404.707 393.891 405.331 393.608 406.112C393.043 407.465 393.467 408.818 394.669 409.651C394.81 409.755 394.951 409.807 395.163 409.807C395.375 409.807 395.517 409.755 395.658 409.651C395.941 409.443 395.941 409.131 395.658 408.923C394.881 408.35 394.598 407.361 394.951 406.424C395.305 405.643 395.941 405.019 396.86 404.759C397.143 404.759 397.426 404.654 397.708 404.55C397.991 404.394 398.062 404.134 397.921 403.926C397.779 403.718 397.496 403.561 397.143 403.614C396.931 403.666 396.789 403.666 396.577 403.718C396.365 403.666 396.153 403.561 396.082 403.405C395.87 403.041 396.082 402.573 396.295 402.208C397.355 400.543 399.759 399.45 402.233 399.554C402.657 399.554 402.94 399.345 402.94 399.033C403.011 398.669 402.728 398.409 402.304 398.409Z" fill="#C1E3F8"/>
</g>
<g clip-path="url(#clip6_3_664)">
<path d="M602.605 656.169C606.135 656.169 609.469 655.399 612.41 653.944C612.901 653.687 613.489 653.858 613.783 654.2C617.412 659.421 623.785 662.93 630.748 663.786C631.728 663.872 632.709 663.957 633.689 663.957C639.573 663.957 645.26 661.989 649.574 658.651C647.417 657.795 645.358 656.682 643.298 655.57C642.808 655.313 642.71 654.799 643.004 654.372C643.298 653.944 643.887 653.858 644.377 654.115C647.122 655.57 649.966 657.11 653.006 657.966C656.34 658.908 659.576 658.822 662.027 657.881C662.518 657.709 663.106 657.881 663.302 658.309C663.498 658.736 663.302 659.25 662.812 659.421C661.243 660.02 659.478 660.363 657.615 660.363C655.948 660.363 654.183 660.106 652.32 659.592C652.32 659.592 652.222 659.592 652.222 659.507C657.321 665.07 665.852 668.493 674.873 668.493C681.737 668.493 688.111 666.525 692.817 663.016C693.014 662.845 693.21 662.845 693.504 662.845H693.602C693.896 662.845 694.092 663.016 694.288 663.187C697.426 666.867 702.82 669.093 708.703 669.093C714.39 669.093 719.587 667.038 722.725 663.615C725.47 660.534 730.275 660.106 734.982 659.678C737.531 659.421 740.179 659.25 742.238 658.565C753.024 655.142 762.241 647.011 765.672 637.939C767.633 632.804 768.613 625.015 762.533 616.97C757.826 610.722 748.804 606.699 739.685 606.699C734.39 606.699 729.487 607.983 725.565 610.465C725.369 610.636 724.977 610.636 724.781 610.636C724.486 610.551 724.29 610.38 724.094 610.123C719.583 601.222 709.581 594.803 698.5 593.605C697.814 593.519 697.226 593.519 696.637 593.519C694.186 593.519 692.421 594.118 691.538 595.231C691.342 595.487 691.048 595.573 690.656 595.573C690.362 595.573 690.068 595.402 689.871 595.145C683.693 585.131 670.259 578.969 654.962 578.969C650.648 578.969 646.529 579.483 642.509 580.424C631.625 583.163 622.408 588.726 616.721 596.258C610.936 603.875 609.074 613.632 611.722 621.848C615.448 619.195 620.351 617.997 625.155 618.51C626.43 618.682 627.803 619.11 628.587 619.88C630.254 617.74 633.294 616.371 636.334 616.542C640.06 616.713 643.394 619.024 644.571 622.191C644.767 622.619 644.473 623.132 643.885 623.303C643.394 623.474 642.806 623.218 642.61 622.704C641.727 620.222 638.981 618.425 636.138 618.254C633.196 618.082 630.352 619.794 629.47 622.191C629.274 622.619 628.882 622.875 628.392 622.79C627.901 622.704 627.607 622.362 627.607 621.934C627.607 621.164 626.234 620.479 624.861 620.308C620.056 619.709 614.958 621.249 611.624 624.33C608.29 627.412 606.82 631.862 607.702 636.056C607.8 636.484 607.408 636.997 606.918 637.083C606.82 637.083 606.82 637.083 606.722 637.083C606.232 637.083 605.839 636.826 605.741 636.398C604.76 631.948 606.231 627.069 609.663 623.646C607.505 622.875 605.152 622.533 602.799 622.533C596.425 622.533 590.248 625.101 586.718 629.294C581.325 635.628 581.914 645.128 587.896 650.948C591.426 654.115 596.917 656.169 602.605 656.169ZM721.646 661.304C722.823 661.047 723.803 660.277 724.784 659.678C728.608 657.11 732.04 654.543 733.314 651.034C733.412 650.777 733.706 650.52 734.001 650.435C734.295 650.349 734.687 650.435 734.883 650.606C735.962 651.547 737.629 651.975 739.394 651.889C741.061 651.804 742.63 651.119 743.61 650.092C744.591 649.065 744.885 647.439 744.002 646.754C743.61 646.412 743.512 645.898 743.904 645.556C744.296 645.214 744.885 645.128 745.277 645.47C747.238 646.925 746.748 649.579 745.179 651.205C743.806 652.574 741.747 653.43 739.492 653.601C737.727 653.687 736.06 653.344 734.687 652.574C733.02 655.998 729.687 658.48 725.961 660.962C724.882 661.646 723.705 662.502 722.136 662.845C721.548 663.016 720.862 663.101 720.175 663.101C718.704 663.101 717.234 662.759 715.959 662.502L710.075 661.133C709.585 661.047 709.291 660.534 709.389 660.106C709.487 659.678 710.075 659.421 710.566 659.507L716.547 660.962C718.214 661.304 719.979 661.732 721.646 661.304ZM698.011 610.037C700.659 608.839 704.09 608.925 706.738 610.208C708.993 611.321 710.465 613.375 710.955 615.6C713.112 615.173 715.564 615.857 717.133 617.398C718.702 619.024 719.388 621.335 719.094 623.817C718.996 624.416 718.604 625.101 717.918 625.357C717.721 625.443 717.525 625.443 717.329 625.443C717.035 625.443 716.839 625.357 716.545 625.272C716.054 625.015 715.956 624.502 716.251 624.074C716.447 623.817 716.741 623.731 717.035 623.731L717.035 623.646C717.329 621.677 716.839 619.794 715.564 618.596C714.289 617.312 712.034 616.799 710.465 617.569C710.171 617.74 709.778 617.74 709.484 617.569C709.19 617.398 708.994 617.141 708.994 616.884C708.994 614.83 707.621 612.776 705.562 611.749C703.502 610.722 700.855 610.636 698.796 611.578C698.305 611.835 697.717 611.663 697.521 611.236C697.325 610.808 697.521 610.294 698.011 610.037ZM659.571 587.271C663.003 586.501 666.827 587.1 670.063 588.983C673.299 590.866 675.457 593.69 676.045 596.686C676.144 597.114 675.751 597.627 675.261 597.627C675.163 597.627 675.163 597.627 675.065 597.627C674.575 597.627 674.182 597.285 674.084 596.942C673.594 594.375 671.731 591.978 668.985 590.352C666.239 588.726 663.003 588.213 660.062 588.897C659.571 588.983 658.983 588.726 658.885 588.298C658.689 587.785 658.983 587.357 659.571 587.271Z" fill="white"/>
<path d="M750.475 633.574C748.71 634.087 746.749 633.916 744.984 634.43C743.023 635.029 741.356 636.313 739.591 637.254C733.806 640.335 725.765 639.907 720.568 636.141C716.744 643.416 704.782 646.241 697.329 641.533C683.798 651.975 660.362 650.349 648.987 638.11C642.613 645.214 628.003 644.443 622.609 636.74C617.118 638.538 611.627 640.25 605.842 641.105C599.174 642.132 591.722 641.961 586.23 638.367C585.152 637.682 584.171 636.74 583.288 635.713C582.112 640.934 583.681 646.669 587.8 650.606C591.33 654.029 596.92 656.083 602.607 656.083C606.137 656.083 609.471 655.313 612.412 653.858C612.903 653.601 613.491 653.772 613.785 654.115C617.414 659.336 623.788 662.845 630.75 663.7C631.73 663.786 632.711 663.872 633.691 663.872C639.575 663.872 645.262 661.903 649.576 658.565C647.419 657.709 645.36 656.597 643.3 655.484C642.81 655.227 642.712 654.714 643.006 654.286C643.3 653.858 643.889 653.772 644.379 654.029C647.125 655.484 649.968 657.025 653.008 657.881C656.342 658.822 659.578 658.736 662.029 657.795C662.52 657.624 663.108 657.795 663.304 658.223C663.5 658.651 663.304 659.164 662.814 659.336C661.245 659.935 659.48 660.277 657.617 660.277C655.95 660.277 654.185 660.02 652.322 659.507C652.322 659.507 652.224 659.507 652.224 659.421C657.323 664.984 665.854 668.408 674.876 668.408C681.74 668.408 688.113 666.439 692.82 662.93C693.016 662.759 693.212 662.759 693.506 662.759H693.604C693.898 662.759 694.094 662.93 694.291 663.101C697.429 666.782 702.822 669.007 708.705 669.007C714.393 669.007 719.589 666.953 722.727 663.529C725.472 660.448 730.277 660.02 734.984 659.592C737.533 659.336 740.181 659.164 742.24 658.48C753.026 655.056 762.243 646.925 765.674 637.853C767.341 633.488 768.321 627.155 764.693 620.393C762.241 623.389 759.594 626.384 756.849 629.209C755.084 630.921 753.123 632.803 750.475 633.574ZM745.083 651.29C743.711 652.66 741.651 653.516 739.396 653.687C737.631 653.772 735.964 653.43 734.591 652.66C732.924 656.083 729.591 658.565 725.865 661.047C724.786 661.732 723.61 662.588 722.041 662.93C721.452 663.101 720.766 663.187 720.08 663.187C718.609 663.187 717.138 662.845 715.863 662.588L710.078 661.133C709.587 661.047 709.293 660.534 709.391 660.106C709.489 659.678 710.077 659.421 710.568 659.507L716.549 660.962C718.118 661.304 719.981 661.818 721.648 661.39C722.825 661.133 723.805 660.363 724.786 659.763C728.61 657.196 732.042 654.628 733.316 651.119C733.414 650.862 733.709 650.606 734.003 650.52C734.297 650.434 734.689 650.52 734.885 650.691C735.964 651.633 737.631 652.061 739.396 651.975C741.063 651.889 742.632 651.205 743.612 650.178C744.593 649.151 744.887 647.524 744.004 646.84C743.612 646.497 743.514 645.984 743.906 645.642C744.298 645.299 744.887 645.214 745.279 645.556C747.142 647.011 746.652 649.664 745.083 651.29Z" fill="#EAF7FD"/>
<path d="M602.606 657.88C606.137 657.88 609.568 657.195 612.51 655.826C616.531 661.047 623.101 664.641 630.357 665.497C631.436 665.583 632.514 665.668 633.593 665.668C639.672 665.668 645.752 663.7 650.36 660.276C655.852 666.439 665.069 670.205 674.875 670.205C681.837 670.205 688.309 668.322 693.31 664.813C696.84 668.493 702.527 670.718 708.705 670.718C714.98 670.718 720.766 668.407 724.295 664.556C726.551 662.074 730.767 661.731 735.18 661.304C737.827 661.047 740.573 660.79 742.926 660.105C754.398 656.425 763.811 648.123 767.537 638.366C770.478 630.492 769.301 622.704 764.103 615.857C758.906 609.01 749.59 604.816 739.588 604.816C734.293 604.816 729.391 606.014 725.272 608.325C720.271 599.424 709.975 592.919 698.6 591.721C695.168 591.379 692.422 591.807 690.755 593.09C683.989 583.162 670.26 577 654.767 577C650.355 577 645.942 577.514 641.824 578.541C630.45 581.365 620.938 587.185 614.958 595.059C608.977 602.933 606.918 612.861 609.566 621.505C607.409 620.821 605.055 620.564 602.702 620.564C595.74 620.564 588.974 623.474 585.052 628.096C579.169 635.028 579.758 645.47 586.427 651.889C590.349 655.569 596.331 657.88 602.606 657.88ZM586.621 629.037C590.151 624.843 596.329 622.276 602.702 622.276C605.154 622.276 607.507 622.618 609.566 623.388C606.134 626.812 604.664 631.69 605.645 636.141C605.743 636.569 606.135 636.826 606.625 636.826C606.723 636.826 606.723 636.826 606.822 636.826C607.312 636.74 607.704 636.312 607.606 635.798C606.723 631.605 608.194 627.154 611.527 624.073C614.861 620.992 619.96 619.451 624.765 620.05C626.138 620.222 627.51 620.821 627.511 621.677C627.511 622.105 627.805 622.447 628.295 622.532C628.785 622.618 629.276 622.361 629.374 621.933C630.256 619.537 633.198 617.911 636.041 617.996C638.885 618.168 641.631 620.05 642.513 622.447C642.709 622.875 643.2 623.132 643.788 623.046C644.278 622.875 644.572 622.447 644.474 621.933C643.297 618.767 639.963 616.456 636.237 616.285C633.197 616.113 630.158 617.483 628.491 619.622C627.608 618.852 626.334 618.424 625.059 618.253C620.352 617.654 615.351 618.938 611.625 621.591C608.879 613.375 610.742 603.618 616.625 596C622.311 588.469 631.528 582.906 642.413 580.167C646.433 579.225 650.551 578.712 654.866 578.712C670.261 578.712 683.597 584.874 689.775 594.888C689.971 595.145 690.265 595.316 690.559 595.316C690.952 595.316 691.246 595.23 691.442 594.973C692.422 593.861 694.089 593.262 696.541 593.262C697.129 593.262 697.815 593.262 698.404 593.347C709.386 594.545 719.487 600.964 723.998 609.866C724.096 610.122 724.39 610.293 724.684 610.379C724.978 610.465 725.273 610.379 725.469 610.208C729.391 607.726 734.293 606.442 739.589 606.442C748.806 606.442 757.729 610.465 762.437 616.713C768.517 624.758 767.536 632.546 765.576 637.681C762.144 646.754 753.026 654.884 742.141 658.308C740.082 658.993 737.435 659.249 734.885 659.421C730.179 659.849 725.374 660.276 722.628 663.358C719.491 666.781 714.294 668.835 708.607 668.835C702.625 668.835 697.232 666.61 694.192 662.93C693.996 662.759 693.8 662.587 693.505 662.587H693.407C693.211 662.587 692.917 662.673 692.721 662.758C688.015 666.268 681.641 668.236 674.777 668.236C665.756 668.236 657.225 664.813 652.125 659.249C652.125 659.249 652.223 659.249 652.223 659.335C653.988 659.849 655.852 660.105 657.518 660.105C659.382 660.105 661.147 659.763 662.715 659.164C663.206 658.993 663.402 658.479 663.206 658.051C663.009 657.623 662.421 657.452 661.931 657.623C659.381 658.65 656.146 658.65 652.91 657.709C649.87 656.853 647.026 655.312 644.28 653.857C643.79 653.601 643.202 653.772 642.908 654.114C642.613 654.542 642.81 655.056 643.202 655.312C645.163 656.425 647.222 657.538 649.478 658.394C645.163 661.731 639.476 663.7 633.593 663.7C632.612 663.7 631.632 663.614 630.651 663.529C623.689 662.759 617.413 659.164 613.687 653.943C613.392 653.515 612.804 653.429 612.314 653.686C609.47 655.141 606.136 655.912 602.508 655.912C596.821 655.912 591.33 653.857 587.701 650.434C581.818 644.871 581.327 635.371 586.621 629.037Z" fill="#C1E3F8"/>
<path d="M710.567 659.506C710.076 659.42 709.488 659.677 709.39 660.105C709.292 660.533 709.586 661.046 710.076 661.132L716.058 662.587C717.333 662.843 718.705 663.186 720.274 663.186C720.863 663.186 721.549 663.1 722.236 662.929C723.706 662.587 724.981 661.731 726.06 661.046C729.688 658.564 733.119 656.082 734.786 652.659C736.159 653.429 737.826 653.771 739.591 653.686C741.846 653.6 743.905 652.744 745.278 651.289C746.847 649.663 747.337 647.01 745.376 645.555C744.984 645.213 744.297 645.298 744.003 645.64C743.611 645.983 743.709 646.582 744.101 646.839C745.082 647.523 744.69 649.235 743.709 650.177C742.729 651.204 741.16 651.888 739.493 651.974C737.826 652.059 736.159 651.632 734.982 650.69C734.688 650.519 734.394 650.433 734.1 650.519C733.805 650.605 733.511 650.776 733.413 651.118C732.237 654.627 728.707 657.195 724.883 659.762C724 660.361 722.922 661.132 721.745 661.389C720.176 661.816 718.313 661.389 716.646 660.961L710.567 659.506Z" fill="#C1E3F8"/>
<path d="M698.896 611.577C700.955 610.635 703.603 610.721 705.662 611.748C707.721 612.775 708.996 614.829 709.094 616.883C709.094 617.226 709.29 617.482 709.585 617.568C709.879 617.739 710.271 617.739 710.565 617.568C712.134 616.798 714.389 617.311 715.664 618.595C716.939 619.793 717.429 621.676 717.135 623.645L717.135 623.73C716.841 623.73 716.547 623.901 716.351 624.073C716.057 624.5 716.155 625.014 716.645 625.271C716.841 625.442 717.135 625.442 717.43 625.442C717.626 625.442 717.822 625.442 718.018 625.356C718.704 625.1 719.097 624.415 719.195 623.816C719.587 621.334 718.9 619.023 717.233 617.397C715.664 615.856 713.213 615.171 711.055 615.599C710.565 613.374 708.996 611.32 706.839 610.207C704.289 608.838 700.857 608.752 698.111 610.036C697.621 610.293 697.425 610.807 697.719 611.149C697.817 611.662 698.406 611.748 698.896 611.577Z" fill="#C1E3F8"/>
<path d="M660.064 588.897C663.006 588.212 666.242 588.811 668.988 590.352C671.733 591.978 673.597 594.374 674.087 596.942C674.185 597.37 674.577 597.627 675.068 597.627C675.068 597.627 675.166 597.627 675.264 597.627C675.754 597.541 676.146 597.113 676.048 596.685C675.558 593.604 673.302 590.78 670.066 588.982C666.83 587.099 663.006 586.5 659.574 587.271C659.084 587.356 658.692 587.87 658.888 588.298C658.986 588.726 659.574 588.982 660.064 588.897Z" fill="#C1E3F8"/>
</g>
</g>
<defs>
<filter id="filter0_d_3_664" x="-32" y="0" width="1983" height="967" filterUnits="userSpaceOnUse" color-interpolation-filters="sRGB">
<feFlood flood-opacity="0" result="BackgroundImageFix"/>
<feColorMatrix in="SourceAlpha" type="matrix" values="0 0 0 0 0 0 0 0 0 0 0 0 0 0 0 0 0 0 127 0" result="hardAlpha"/>
<feOffset dy="5"/>
<feGaussianBlur stdDeviation="15"/>
<feComposite in2="hardAlpha" operator="out"/>
<feColorMatrix type="matrix" values="0 0 0 0 0.841205 0 0 0 0 0.8263 0 0 0 0 0.883629 0 0 0 0.5 0"/>
<feBlend mode="normal" in2="BackgroundImageFix" result="effect1_dropShadow_3_664"/>
<feBlend mode="normal" in="SourceGraphic" in2="effect1_dropShadow_3_664" result="shape"/>
</filter>
<clipPath id="clip0_3_664">
<rect width="1923" height="907" fill="white" transform="translate(-2 25)"/>
</clipPath>
<clipPath id="clip1_3_664">
<rect width="110.996" height="52" fill="white" transform="matrix(-1 0 0 1 573.974 528.948)"/>
</clipPath>
<clipPath id="clip2_3_664">
<rect width="207.002" height="100" fill="white" transform="matrix(-1 0 0 1 1200 134.687)"/>
</clipPath>
<clipPath id="clip3_3_664">
<rect width="86.9977" height="53.0156" fill="white" transform="matrix(-1 0 0 1 1219.96 389.907)"/>
</clipPath>
<clipPath id="clip4_3_664">
<rect width="211.191" height="118.32" fill="white" transform="matrix(-1 0 0 1 1601.19 97)"/>
</clipPath>
<clipPath id="clip5_3_664">
<rect width="124.997" height="55.0162" fill="white" transform="translate(351.98 386.906)"/>
</clipPath>
<clipPath id="clip6_3_664">
<rect width="188.113" height="93.7181" fill="white" transform="matrix(1 0 6.48024e-05 1 581 577)"/>
</clipPath>
</defs>
</svg>
