<svg width="1373" height="499" viewBox="0 0 1373 499" fill="none" xmlns="http://www.w3.org/2000/svg">
<path fill-rule="evenodd" clip-rule="evenodd" d="M69.0965 46.7618C69.228 45.665 70.2237 44.8826 71.3204 45.0142C74.1089 45.3487 76.8968 45.7123 79.6844 46.1046L79.1271 50.0655C76.3661 49.677 73.6051 49.3169 70.844 48.9857C69.7473 48.8542 68.9649 47.8585 69.0965 46.7618ZM112.089 56.0158C106.608 54.8143 101.131 53.7164 95.6564 52.726L96.3685 48.7898C101.893 49.7893 107.418 50.8969 112.946 52.1086L112.089 56.0158ZM144.531 64.2861C139.14 62.7258 133.757 61.2572 128.38 59.8841L129.37 56.0084C134.789 57.3924 140.213 58.8721 145.643 60.4439L144.531 64.2861ZM176.453 74.5318C171.143 72.6668 165.843 70.8824 160.554 69.1823L161.777 65.3742C167.103 67.0856 172.436 68.8814 177.779 70.7578L176.453 74.5318ZM207.828 86.4057C202.617 84.2983 197.42 82.2606 192.235 80.2959L193.653 76.5555C198.866 78.531 204.091 80.5795 209.328 82.6975L207.828 86.4057ZM238.681 99.5975C233.54 97.2867 228.414 95.0361 223.303 92.849L224.877 89.1716C230.011 91.3686 235.159 93.6288 240.321 95.9491L238.681 99.5975ZM269.086 113.848C264.031 111.387 258.994 108.978 253.973 106.623L255.672 103.002C260.711 105.365 265.766 107.783 270.837 110.251L269.086 113.848ZM299.117 128.934C294.102 126.342 289.106 123.793 284.129 121.291L285.925 117.718C290.917 120.227 295.926 122.782 300.954 125.38L299.117 128.934ZM328.796 144.637C323.844 141.962 318.914 139.323 314.003 136.723L315.874 133.188C320.796 135.793 325.737 138.438 330.697 141.118L328.796 144.637ZM358.282 160.843C353.355 158.095 348.451 155.377 343.567 152.691L345.495 149.186C350.386 151.876 355.298 154.598 360.23 157.35L358.282 160.843ZM387.553 177.365C382.65 174.57 377.77 171.8 372.912 169.057L374.879 165.574C379.742 168.32 384.627 171.093 389.534 173.89L387.553 177.365ZM416.7 194.1C411.827 191.286 406.977 188.492 402.15 185.72L404.142 182.251C408.972 185.025 413.825 187.821 418.7 190.636L416.7 194.1ZM445.817 210.967C440.949 208.141 436.106 205.331 431.286 202.538L433.291 199.077C438.112 201.871 442.957 204.681 447.825 207.507L445.817 210.967ZM474.947 227.871C470.059 225.038 465.196 222.216 460.357 219.408L462.366 215.948C467.204 218.757 472.066 221.578 476.953 224.41L474.947 227.871ZM504.059 244.69C499.169 241.877 494.305 239.071 489.466 236.275L491.468 232.812C496.305 235.607 501.166 238.411 506.054 241.223L504.059 244.69ZM533.255 261.389C528.36 258.608 523.492 255.832 518.649 253.061L520.635 249.589C525.475 252.358 530.34 255.132 535.231 257.911L533.255 261.389ZM562.576 277.907C557.67 275.168 552.79 272.431 547.937 269.696L549.901 266.211C554.75 268.943 559.624 271.678 564.526 274.414L562.576 277.907ZM592.047 294.183C587.11 291.487 582.2 288.79 577.317 286.092L579.251 282.591C584.129 285.285 589.033 287.979 593.964 290.672L592.047 294.183ZM621.692 310.162C616.716 307.516 611.768 304.866 606.846 302.212L608.745 298.692C613.659 301.341 618.601 303.988 623.57 306.63L621.692 310.162ZM651.529 325.794C646.512 323.206 641.523 320.612 636.562 318.012L638.419 314.469C643.372 317.065 648.353 319.656 653.363 322.239L651.529 325.794ZM681.565 341.029C676.509 338.509 671.481 335.98 666.481 333.444L668.29 329.877C673.282 332.409 678.302 334.934 683.349 337.449L681.565 341.029ZM711.798 355.818C706.709 353.376 701.648 350.924 696.616 348.462L698.374 344.869C703.397 347.327 708.449 349.774 713.529 352.212L711.798 355.818ZM742.265 370.135C737.141 367.778 732.045 365.408 726.978 363.027L728.68 359.407C733.737 361.783 738.822 364.149 743.937 366.501L742.265 370.135ZM772.971 383.945C767.809 381.677 762.678 379.395 757.574 377.1L759.215 373.452C764.308 375.743 769.429 378.02 774.58 380.283L772.971 383.945ZM803.918 397.215C798.719 395.041 793.549 392.852 788.408 390.647L789.985 386.971C795.115 389.171 800.273 391.356 805.461 393.525L803.918 397.215ZM827.329 406.812C824.706 405.758 822.09 404.7 819.482 403.638L820.99 399.933C823.593 400.993 826.203 402.049 828.82 403.1C831.546 404.195 834.264 405.28 836.973 406.354L835.498 410.072C832.784 408.996 830.061 407.909 827.329 406.812ZM868.081 422.631C862.675 420.608 857.236 418.542 851.762 416.432L853.201 412.699C858.662 414.805 864.089 416.867 869.482 418.885L868.081 422.631ZM901.008 434.551C895.546 432.642 890.05 430.686 884.519 428.683L885.881 424.922C891.399 426.92 896.881 428.871 902.328 430.775L901.008 434.551ZM934.159 445.695C928.659 443.921 923.124 442.098 917.553 440.225L918.828 436.434C924.383 438.302 929.902 440.12 935.386 441.887L934.159 445.695ZM967.568 455.973C962.024 454.351 956.445 452.676 950.829 450.948L952.006 447.125C957.604 448.848 963.165 450.517 968.691 452.134L967.568 455.973ZM1001.3 465.289C995.696 463.836 990.059 462.325 984.385 460.757L985.45 456.901C991.105 458.464 996.721 459.969 1002.3 461.417L1001.3 465.289ZM1372.8 466.877C1370 467.751 1367.21 468.603 1364.41 469.434L1363.27 465.599C1366.05 464.774 1368.83 463.928 1371.6 463.06L1372.8 466.877ZM1035.33 473.511C1029.68 472.25 1024 470.929 1018.28 469.546L1019.22 465.658C1024.92 467.036 1030.58 468.352 1036.2 469.607L1035.33 473.511ZM1347.54 474.161C1341.88 475.652 1336.21 477.055 1330.52 478.369L1329.62 474.472C1335.27 473.166 1340.9 471.774 1346.51 470.293L1347.54 474.161ZM1069.63 480.492C1063.94 479.449 1058.21 478.34 1052.45 477.166L1053.24 473.246C1058.98 474.415 1064.69 475.519 1070.35 476.558L1069.63 480.492ZM1313.39 482.049C1307.66 483.186 1301.92 484.234 1296.15 485.194L1295.49 481.248C1301.22 480.295 1306.93 479.254 1312.61 478.126L1313.39 482.049ZM1104.19 486.084C1098.46 485.283 1092.69 484.412 1086.88 483.472L1087.52 479.523C1093.3 480.459 1099.04 481.326 1104.75 482.123L1104.19 486.084ZM1278.82 487.802C1273.05 488.58 1267.25 489.27 1261.42 489.874L1261.01 485.895C1266.79 485.296 1272.55 484.61 1278.29 483.838L1278.82 487.802ZM1138.97 490.128C1133.2 489.596 1127.4 488.99 1121.56 488.31L1122.02 484.337C1127.83 485.013 1133.6 485.616 1139.34 486.145L1138.97 490.128ZM1243.96 491.414C1238.16 491.838 1232.33 492.177 1226.47 492.431L1226.3 488.435C1232.12 488.183 1237.91 487.846 1243.67 487.425L1243.96 491.414ZM1173.91 492.463C1168.12 492.226 1162.29 491.911 1156.42 491.519L1156.69 487.528C1162.52 487.918 1168.31 488.231 1174.07 488.466L1173.91 492.463ZM1208.95 492.936C1203.14 493.02 1197.3 493.021 1191.42 492.941L1191.48 488.941C1197.32 489.021 1203.12 489.019 1208.89 488.936L1208.95 492.936Z" fill="#FF946E"/>
<circle cx="988" cy="459" r="40" fill="#FF652F"/>
<path d="M987.499 473.406C985.419 473.406 983.646 473.166 982.179 472.686C980.712 472.179 979.512 471.539 978.579 470.766C977.646 469.966 976.952 469.126 976.499 468.246C976.046 467.339 975.806 466.472 975.779 465.646C975.779 465.406 975.859 465.206 976.019 465.046C976.206 464.886 976.419 464.806 976.659 464.806H981.859C982.179 464.806 982.432 464.872 982.619 465.006C982.806 465.112 982.979 465.299 983.139 465.566C983.352 466.072 983.659 466.486 984.059 466.806C984.486 467.126 984.992 467.352 985.579 467.486C986.166 467.592 986.806 467.646 987.499 467.646C988.859 467.646 989.912 467.339 990.659 466.726C991.432 466.086 991.819 465.219 991.819 464.126C991.819 462.979 991.459 462.166 990.739 461.686C990.019 461.179 988.992 460.926 987.659 460.926H983.219C982.926 460.926 982.686 460.832 982.499 460.646C982.312 460.459 982.219 460.219 982.219 459.926V457.686C982.219 457.366 982.286 457.086 982.419 456.846C982.552 456.606 982.699 456.432 982.859 456.326L989.419 450.766H978.299C978.032 450.766 977.792 450.672 977.579 450.486C977.392 450.299 977.299 450.059 977.299 449.766V446.006C977.299 445.712 977.392 445.472 977.579 445.286C977.792 445.099 978.032 445.006 978.299 445.006H996.699C996.992 445.006 997.232 445.099 997.419 445.286C997.632 445.472 997.739 445.712 997.739 446.006V449.406C997.739 449.699 997.672 449.966 997.539 450.206C997.406 450.419 997.259 450.592 997.099 450.726L991.019 456.366L991.299 456.446C992.819 456.632 994.179 457.046 995.379 457.686C996.579 458.299 997.526 459.166 998.219 460.286C998.912 461.406 999.259 462.832 999.259 464.566C999.259 466.379 998.739 467.952 997.699 469.286C996.686 470.592 995.299 471.606 993.539 472.326C991.779 473.046 989.766 473.406 987.499 473.406Z" fill="white"/>
<circle cx="508" cy="243" r="40" fill="#FF652F"/>
<path d="M496.679 255.006C496.386 255.006 496.132 254.912 495.919 254.726C495.732 254.539 495.639 254.299 495.639 254.006V251.166C495.639 250.979 495.692 250.699 495.799 250.326C495.906 249.926 496.186 249.552 496.639 249.206L500.799 245.126C502.932 243.499 504.679 242.126 506.039 241.006C507.426 239.859 508.452 238.846 509.119 237.966C509.786 237.086 510.119 236.259 510.119 235.486C510.119 234.579 509.879 233.832 509.399 233.246C508.946 232.632 508.146 232.326 506.999 232.326C506.226 232.326 505.572 232.499 505.039 232.846C504.532 233.166 504.146 233.592 503.879 234.126C503.612 234.659 503.426 235.206 503.319 235.766C503.212 236.112 503.026 236.352 502.759 236.486C502.519 236.619 502.252 236.686 501.959 236.686H496.959C496.719 236.686 496.519 236.606 496.359 236.446C496.199 236.286 496.119 236.086 496.119 235.846C496.146 234.566 496.412 233.366 496.919 232.246C497.452 231.126 498.186 230.139 499.119 229.286C500.079 228.406 501.212 227.726 502.519 227.246C503.852 226.766 505.346 226.526 506.999 226.526C509.266 226.526 511.186 226.886 512.759 227.606C514.359 228.326 515.572 229.339 516.399 230.646C517.226 231.926 517.639 233.432 517.639 235.166C517.639 236.472 517.346 237.699 516.759 238.846C516.199 239.966 515.386 241.046 514.319 242.086C513.279 243.099 512.039 244.152 510.599 245.246L506.919 248.966H517.199C517.492 248.966 517.732 249.059 517.919 249.246C518.132 249.432 518.239 249.672 518.239 249.966V254.006C518.239 254.299 518.132 254.539 517.919 254.726C517.732 254.912 517.492 255.006 517.199 255.006H496.679Z" fill="white"/>
<ellipse cx="40.834" cy="40.0416" rx="40" ry="40.0128" fill="#FF652F"/>
<path d="M41.6464 52.7581C41.3797 52.7581 41.1397 52.6647 40.9264 52.4781C40.7397 52.2914 40.6464 52.0514 40.6464 51.7581V32.7181L35.1664 36.9181C34.9264 37.1047 34.6731 37.1714 34.4064 37.1181C34.1664 37.0647 33.9531 36.9181 33.7664 36.6781L31.4064 33.5981C31.2464 33.3581 31.1797 33.1047 31.2064 32.8381C31.2597 32.5447 31.4197 32.3181 31.6864 32.1581L40.8864 25.0381C41.0464 24.9314 41.1931 24.8647 41.3264 24.8381C41.4864 24.7847 41.6597 24.7581 41.8464 24.7581H46.8464C47.1131 24.7581 47.3397 24.8514 47.5264 25.0381C47.7397 25.2247 47.8464 25.4647 47.8464 25.7581V51.7581C47.8464 52.0514 47.7397 52.2914 47.5264 52.4781C47.3397 52.6647 47.1131 52.7581 46.8464 52.7581H41.6464Z" fill="white"/>
</svg>
